<svg width="35" height="16" viewBox="0 0 35 16" fill="none" xmlns="http://www.w3.org/2000/svg">
<path d="M35 13H0V16H35V13Z" fill="#644E40"/>
<path fill-rule="evenodd" clip-rule="evenodd" d="M34.133 11.0538V10.3278C34.14 10.3228 34.144 10.3158 34.144 10.3078C34.144 10.2968 34.136 10.2868 34.126 10.2848V10.2238V10.2118V10.2088C34.126 10.2068 34.126 10.2048 34.126 10.2038V10.1748H34.136C34.143 10.1748 34.148 10.1688 34.148 10.1628C34.148 10.1558 34.143 10.1508 34.136 10.1508H34.121C34.128 10.1308 34.136 10.0928 34.119 10.0538C34.111 10.0358 34.095 10.0188 34.077 10.0038C34.059 9.98878 34.039 9.97678 34.023 9.96778C34.024 9.96478 34.025 9.96278 34.025 9.95878C34.025 9.95478 34.025 9.94978 34.023 9.94478C34.021 9.93978 34.016 9.93478 34.011 9.93078C34.006 9.92678 34.001 9.92378 33.998 9.92178V9.91278C33.999 9.91178 34 9.91078 34 9.90978C34.001 9.90878 34.001 9.90678 34.001 9.90578C34.001 9.90378 34.001 9.90278 34 9.90078C33.999 9.89978 33.998 9.89878 33.997 9.89778L33.996 9.89078L33.998 9.88878C33.998 9.88778 33.999 9.88578 33.999 9.88478C33.999 9.88378 33.999 9.88178 33.998 9.88078C33.997 9.87978 33.996 9.87878 33.996 9.87878V9.87078L33.994 9.81178C33.994 9.81078 33.993 9.81078 33.993 9.81078C33.992 9.81078 33.991 9.81078 33.991 9.81178L33.989 9.87078V9.87878C33.988 9.87878 33.987 9.87978 33.986 9.88078C33.986 9.88178 33.985 9.88278 33.985 9.88478C33.985 9.88578 33.985 9.88778 33.986 9.88878C33.986 9.88978 33.987 9.89078 33.988 9.89078V9.89778C33.987 9.89878 33.986 9.89978 33.985 9.90078C33.984 9.90278 33.983 9.90378 33.983 9.90578C33.983 9.90778 33.983 9.90878 33.984 9.90978C33.984 9.91078 33.986 9.91178 33.986 9.91278V9.92178C33.982 9.92378 33.977 9.92678 33.973 9.93078C33.968 9.93478 33.963 9.93978 33.961 9.94478C33.959 9.94978 33.958 9.95478 33.959 9.95878C33.959 9.96278 33.96 9.96578 33.961 9.96778C33.945 9.97678 33.925 9.98978 33.908 10.0038C33.89 10.0188 33.874 10.0358 33.866 10.0538C33.849 10.0928 33.858 10.1308 33.864 10.1508H33.853C33.846 10.1508 33.841 10.1558 33.841 10.1628C33.841 10.1698 33.846 10.1748 33.853 10.1748H33.862V10.2098V10.2858C33.852 10.2888 33.844 10.2978 33.844 10.3088C33.844 10.3168 33.848 10.3238 33.855 10.3288V11.0548H33.827C33.83 11.0508 33.831 11.0448 33.831 11.0398C33.831 11.0228 33.819 11.0088 33.803 11.0038V10.8878V10.8348H33.818C33.828 10.8348 33.837 10.8258 33.837 10.8158C33.837 10.8058 33.828 10.7968 33.818 10.7968H33.801C33.811 10.7668 33.824 10.7078 33.798 10.6488C33.786 10.6208 33.761 10.5948 33.733 10.5718C33.706 10.5498 33.676 10.5308 33.651 10.5158C33.652 10.5118 33.653 10.5068 33.653 10.5018C33.653 10.4948 33.653 10.4878 33.649 10.4808C33.646 10.4728 33.638 10.4658 33.631 10.4598C33.624 10.4548 33.616 10.4498 33.61 10.4468V10.4338C33.612 10.4328 33.613 10.4308 33.614 10.4288C33.615 10.4268 33.616 10.4248 33.616 10.4218C33.616 10.4188 33.616 10.4168 33.614 10.4148C33.613 10.4128 33.612 10.4108 33.61 10.4098V10.3988C33.611 10.3978 33.612 10.3968 33.613 10.3948C33.614 10.3928 33.614 10.3908 33.614 10.3898C33.614 10.3878 33.614 10.3858 33.612 10.3838C33.611 10.3828 33.61 10.3808 33.609 10.3798V10.3678L33.605 10.2778C33.605 10.2768 33.604 10.2758 33.603 10.2758C33.602 10.2758 33.601 10.2768 33.601 10.2778L33.597 10.3678L33.596 10.3798C33.595 10.3808 33.594 10.3818 33.593 10.3838C33.592 10.3858 33.591 10.3878 33.591 10.3898C33.591 10.3918 33.591 10.3938 33.592 10.3948C33.593 10.3968 33.594 10.3978 33.595 10.3988V10.4098C33.593 10.4108 33.592 10.4128 33.59 10.4148C33.589 10.4168 33.588 10.4188 33.588 10.4218C33.588 10.4238 33.589 10.4268 33.59 10.4288C33.591 10.4308 33.592 10.4318 33.594 10.4338V10.4468C33.588 10.4498 33.58 10.4548 33.573 10.4598C33.565 10.4658 33.558 10.4728 33.555 10.4808C33.552 10.4878 33.551 10.4958 33.551 10.5018C33.551 10.5068 33.553 10.5118 33.554 10.5158C33.53 10.5298 33.499 10.5488 33.472 10.5718C33.444 10.5948 33.42 10.6208 33.408 10.6488C33.382 10.7078 33.394 10.7668 33.405 10.7968H33.384C33.374 10.7968 33.366 10.8058 33.366 10.8158C33.366 10.8258 33.374 10.8348 33.384 10.8348H33.4C33.4 10.8598 33.4 10.8858 33.4 10.9108V11.0048C33.384 11.0088 33.372 11.0228 33.372 11.0408C33.372 11.0458 33.373 11.0518 33.375 11.0558H33.344C33.347 11.0518 33.347 11.0458 33.347 11.0408C33.347 11.0238 33.335 11.0098 33.32 11.0048V10.8888V10.8358H33.335C33.345 10.8358 33.354 10.8268 33.354 10.8168C33.354 10.8068 33.345 10.7978 33.335 10.7978H33.317C33.327 10.7678 33.34 10.7088 33.314 10.6498C33.302 10.6218 33.277 10.5958 33.249 10.5728C33.222 10.5508 33.192 10.5318 33.167 10.5168C33.168 10.5128 33.169 10.5078 33.169 10.5028C33.169 10.4958 33.169 10.4888 33.165 10.4818C33.161 10.4738 33.154 10.4668 33.147 10.4608C33.14 10.4558 33.132 10.4508 33.126 10.4478V10.4348C33.128 10.4338 33.129 10.4318 33.13 10.4298C33.131 10.4278 33.132 10.4258 33.132 10.4228C33.132 10.4198 33.131 10.4178 33.13 10.4158C33.129 10.4138 33.128 10.4118 33.126 10.4108V10.3998C33.127 10.3988 33.128 10.3978 33.129 10.3958C33.13 10.3938 33.13 10.3918 33.13 10.3908C33.13 10.3888 33.13 10.3868 33.128 10.3848C33.127 10.3838 33.126 10.3818 33.125 10.3808L33.124 10.3688L33.12 10.2788C33.12 10.2778 33.119 10.2768 33.118 10.2768C33.117 10.2768 33.117 10.2778 33.117 10.2788L33.112 10.3688V10.3808C33.111 10.3818 33.11 10.3828 33.109 10.3848C33.108 10.3868 33.107 10.3888 33.107 10.3908C33.107 10.3928 33.107 10.3948 33.108 10.3958C33.109 10.3968 33.11 10.3988 33.111 10.3998V10.4108C33.109 10.4118 33.108 10.4138 33.106 10.4158C33.105 10.4178 33.104 10.4198 33.104 10.4228C33.104 10.4248 33.104 10.4278 33.106 10.4298C33.107 10.4318 33.108 10.4328 33.11 10.4348L33.109 10.4478C33.103 10.4508 33.096 10.4558 33.088 10.4608C33.08 10.4668 33.073 10.4738 33.07 10.4818C33.067 10.4888 33.066 10.4968 33.066 10.5028C33.066 10.5078 33.068 10.5128 33.068 10.5168C33.044 10.5308 33.013 10.5498 32.986 10.5728C32.958 10.5958 32.934 10.6218 32.921 10.6498C32.895 10.7088 32.908 10.7678 32.918 10.7978H32.897C32.887 10.7978 32.878 10.8068 32.878 10.8168C32.878 10.8268 32.887 10.8358 32.897 10.8358H32.912C32.912 10.8608 32.912 10.8868 32.912 10.9118V11.0058C32.896 11.0098 32.884 11.0238 32.884 11.0418C32.884 11.0468 32.885 11.0528 32.887 11.0568H32.851V10.0878C32.851 10.0158 32.795 9.95578 32.725 9.94878C32.729 9.93878 32.732 9.92778 32.732 9.91578C32.732 9.89178 32.721 9.86978 32.704 9.85478V9.00578C32.727 9.00578 32.745 8.98678 32.745 8.96378C32.745 8.94078 32.726 8.92178 32.703 8.92178H32.656C32.679 8.85378 32.707 8.72378 32.649 8.59078C32.622 8.52878 32.567 8.47078 32.505 8.41978C32.445 8.36978 32.377 8.32678 32.322 8.29578C32.325 8.28778 32.327 8.27678 32.328 8.26478C32.328 8.25078 32.327 8.23378 32.319 8.21778C32.311 8.20078 32.295 8.18478 32.278 8.17078C32.262 8.15878 32.244 8.14778 32.232 8.14078L32.23 8.11178C32.234 8.10878 32.237 8.10578 32.239 8.10178C32.241 8.09678 32.243 8.09178 32.243 8.08678C32.243 8.08078 32.242 8.07478 32.239 8.06978C32.236 8.06578 32.233 8.06178 32.229 8.05878L32.228 8.03478C32.23 8.03178 32.233 8.02978 32.234 8.02678C32.236 8.02278 32.237 8.01878 32.237 8.01478C32.237 8.00978 32.236 8.00578 32.233 8.00078C32.231 7.99778 32.228 7.99478 32.225 7.99278L32.224 7.96578L32.215 7.76478C32.215 7.76278 32.213 7.76078 32.21 7.76078C32.208 7.76078 32.206 7.76278 32.205 7.76478L32.196 7.96578L32.195 7.99278C32.192 7.99478 32.189 7.99778 32.188 8.00078C32.186 8.00478 32.184 8.00978 32.184 8.01478C32.184 8.01978 32.185 8.02378 32.187 8.02678C32.189 8.02978 32.191 8.03278 32.194 8.03478L32.193 8.05878C32.189 8.06178 32.185 8.06578 32.183 8.06978C32.18 8.07478 32.178 8.08078 32.178 8.08678C32.178 8.09178 32.18 8.09778 32.182 8.10178C32.184 8.10578 32.187 8.10978 32.19 8.11178L32.188 8.14078C32.175 8.14778 32.158 8.15778 32.142 8.17078C32.124 8.18478 32.108 8.20078 32.101 8.21778C32.094 8.23478 32.092 8.25078 32.092 8.26478C32.093 8.27778 32.095 8.28778 32.098 8.29578C32.043 8.32678 31.976 8.36978 31.915 8.41978C31.853 8.47078 31.798 8.52878 31.771 8.59078C31.713 8.72378 31.741 8.85378 31.764 8.92178H31.724C31.701 8.92178 31.682 8.94078 31.682 8.96378C31.682 8.98578 31.7 9.00478 31.723 9.00578V9.85478C31.706 9.86978 31.695 9.89078 31.695 9.91578C31.695 9.92778 31.698 9.93878 31.702 9.94878C31.631 9.95578 31.576 10.0158 31.576 10.0878V11.7318H31.503C31.501 11.7188 31.494 11.7068 31.485 11.6988V11.1268C31.5 11.1268 31.512 11.1138 31.512 11.0988C31.512 11.0828 31.499 11.0708 31.484 11.0708H31.453C31.468 11.0248 31.487 10.9368 31.448 10.8478C31.43 10.8058 31.393 10.7668 31.351 10.7318C31.31 10.6988 31.265 10.6698 31.228 10.6488C31.23 10.6438 31.231 10.6358 31.232 10.6278C31.232 10.6188 31.231 10.6078 31.226 10.5958C31.221 10.5848 31.21 10.5728 31.199 10.5648C31.188 10.5558 31.177 10.5488 31.168 10.5448L31.161 10.5218C31.163 10.5198 31.165 10.5178 31.166 10.5148C31.168 10.5118 31.169 10.5088 31.169 10.5048C31.169 10.5008 31.168 10.4968 31.166 10.4938C31.164 10.4908 31.162 10.4878 31.159 10.4868L31.158 10.4698C31.16 10.4678 31.161 10.4668 31.162 10.4648C31.164 10.4628 31.164 10.4598 31.164 10.4568C31.164 10.4538 31.163 10.4498 31.162 10.4478C31.161 10.4448 31.159 10.4428 31.157 10.4418L31.156 10.4238L31.15 10.2888C31.15 10.2868 31.148 10.2858 31.147 10.2858C31.145 10.2858 31.144 10.2868 31.144 10.2888L31.138 10.4238L31.137 10.4418C31.135 10.4428 31.133 10.4448 31.132 10.4478C31.13 10.4498 31.13 10.4538 31.13 10.4568C31.13 10.4598 31.13 10.4628 31.132 10.4648C31.133 10.4668 31.134 10.4688 31.136 10.4698L31.135 10.4868C31.132 10.4888 31.13 10.4908 31.128 10.4938C31.126 10.4968 31.125 10.5008 31.125 10.5048C31.125 10.5088 31.126 10.5118 31.128 10.5148C31.129 10.5178 31.131 10.5198 31.134 10.5218L31.133 10.5408C31.124 10.5458 31.113 10.5528 31.102 10.5608C31.09 10.5698 31.08 10.5808 31.074 10.5918C31.069 10.6028 31.068 10.6138 31.068 10.6238C31.068 10.6328 31.07 10.6398 31.072 10.6448C31.035 10.6658 30.99 10.6948 30.949 10.7278C30.907 10.7618 30.871 10.8018 30.852 10.8438C30.813 10.9328 30.831 11.0208 30.847 11.0668H30.821C30.806 11.0668 30.793 11.0798 30.793 11.0948C30.793 11.1098 30.805 11.1218 30.82 11.1228V11.6948C30.811 11.7038 30.804 11.7148 30.802 11.7278H30.733L30.731 11.0518H30.745C30.767 11.0518 30.786 11.0338 30.786 11.0108C30.786 10.9888 30.767 10.9698 30.745 10.9698H30.731L30.728 10.4028H30.746C30.766 10.4028 30.782 10.3868 30.782 10.3668C30.782 10.3498 30.77 10.3358 30.754 10.3318V10.2148V10.1608H30.769C30.78 10.1608 30.788 10.1518 30.788 10.1428C30.788 10.1318 30.78 10.1238 30.769 10.1238H30.751C30.761 10.0928 30.774 10.0348 30.748 9.97578C30.736 9.94778 30.711 9.92178 30.684 9.89878C30.657 9.87678 30.627 9.85778 30.602 9.84278C30.603 9.83978 30.604 9.83478 30.604 9.82878C30.604 9.82178 30.604 9.81478 30.6 9.80778C30.597 9.79978 30.589 9.79278 30.582 9.78678C30.575 9.78078 30.567 9.77678 30.561 9.77278V9.75978C30.563 9.75878 30.564 9.75678 30.565 9.75578C30.566 9.75378 30.567 9.75078 30.567 9.74878C30.567 9.74578 30.567 9.74378 30.565 9.74178C30.564 9.73978 30.563 9.73778 30.561 9.73778V9.72678C30.562 9.72578 30.563 9.72478 30.564 9.72378C30.565 9.72178 30.566 9.71978 30.566 9.71778C30.566 9.71578 30.565 9.71378 30.564 9.71178C30.563 9.71078 30.562 9.70978 30.561 9.70778V9.69578L30.557 9.60578C30.557 9.60478 30.556 9.60378 30.555 9.60378C30.554 9.60378 30.553 9.60478 30.553 9.60578L30.549 9.69578L30.548 9.70778C30.547 9.70878 30.546 9.71078 30.545 9.71178C30.544 9.71378 30.543 9.71578 30.543 9.71778C30.543 9.71978 30.543 9.72178 30.544 9.72378C30.545 9.72478 30.546 9.72678 30.547 9.72678V9.73778C30.545 9.73878 30.544 9.74078 30.543 9.74178C30.542 9.74378 30.541 9.74678 30.541 9.74878C30.541 9.75078 30.542 9.75378 30.543 9.75578C30.544 9.75778 30.545 9.75878 30.547 9.75978L30.546 9.77278C30.54 9.77578 30.532 9.78078 30.525 9.78678C30.517 9.79278 30.51 9.79978 30.507 9.80778C30.504 9.81478 30.503 9.82278 30.503 9.82878C30.503 9.83478 30.505 9.83978 30.506 9.84278C30.482 9.85678 30.451 9.87578 30.424 9.89878C30.396 9.92178 30.372 9.94778 30.36 9.97578C30.334 10.0348 30.346 10.0938 30.357 10.1238H30.336C30.326 10.1238 30.318 10.1318 30.318 10.1428C30.318 10.1528 30.326 10.1608 30.336 10.1608H30.352C30.352 10.1868 30.352 10.2118 30.352 10.2368V10.3308C30.336 10.3348 30.324 10.3488 30.324 10.3658C30.324 10.3858 30.34 10.4018 30.36 10.4018H30.377L30.374 10.9688H30.36C30.338 10.9688 30.319 10.9868 30.319 11.0098C30.319 11.0328 30.337 11.0508 30.36 11.0508H30.374V11.1018H30.271C30.307 11.0048 30.364 10.7898 30.268 10.5708C30.226 10.4758 30.141 10.3858 30.046 10.3068C29.953 10.2298 29.849 10.1638 29.765 10.1158C29.769 10.1038 29.773 10.0868 29.774 10.0678C29.775 10.0458 29.772 10.0208 29.761 9.99478C29.749 9.96778 29.725 9.94278 29.698 9.92278C29.673 9.90378 29.646 9.88778 29.627 9.87678L29.625 9.83178C29.63 9.82778 29.635 9.82278 29.638 9.81578C29.642 9.80878 29.644 9.80078 29.644 9.79178C29.644 9.78278 29.642 9.77378 29.637 9.76578C29.633 9.75878 29.628 9.75378 29.621 9.74978L29.619 9.71178C29.623 9.70878 29.626 9.70478 29.629 9.69978C29.632 9.69378 29.633 9.68778 29.633 9.68078C29.633 9.67378 29.631 9.66678 29.627 9.65978C29.624 9.65478 29.62 9.65078 29.615 9.64678L29.613 9.60578L29.599 9.30278C29.627 9.30378 29.657 9.29678 29.683 9.28178C29.711 9.26578 29.732 9.24278 29.745 9.21578C29.734 9.23078 29.72 9.24278 29.703 9.25278C29.635 9.29178 29.548 9.26878 29.508 9.20078C29.469 9.13278 29.492 9.04478 29.56 9.00578C29.577 8.99578 29.595 8.98978 29.613 8.98778C29.583 8.98578 29.553 8.99278 29.524 9.00878C29.449 9.05278 29.423 9.14878 29.466 9.22478C29.492 9.26978 29.535 9.29678 29.583 9.30278L29.569 9.60678L29.567 9.64778C29.562 9.65078 29.558 9.65478 29.555 9.66078C29.551 9.66678 29.549 9.67378 29.549 9.68178C29.549 9.68878 29.551 9.69578 29.554 9.70078C29.556 9.70478 29.56 9.70978 29.564 9.71278L29.562 9.75078C29.555 9.75478 29.55 9.76078 29.547 9.76678C29.543 9.77478 29.54 9.78278 29.54 9.79278C29.54 9.80178 29.542 9.80878 29.546 9.81678C29.549 9.82278 29.554 9.82878 29.559 9.83278L29.557 9.87778C29.537 9.88878 29.51 9.90478 29.486 9.92378C29.459 9.94378 29.434 9.96878 29.423 9.99578C29.412 10.0218 29.409 10.0468 29.41 10.0688C29.411 10.0878 29.415 10.1048 29.419 10.1168C29.391 10.1328 29.361 10.1508 29.329 10.1708V9.85978C29.334 9.85678 29.337 9.85178 29.337 9.84578C29.337 9.83778 29.331 9.83078 29.323 9.82878V9.78378V9.77578V9.77378C29.323 9.77278 29.323 9.77078 29.323 9.76978V9.74878H29.33C29.335 9.74878 29.339 9.74478 29.339 9.73978C29.339 9.73478 29.335 9.73078 29.33 9.73078H29.32C29.325 9.71678 29.331 9.68878 29.318 9.66078C29.312 9.64778 29.301 9.63578 29.288 9.62478C29.275 9.61478 29.261 9.60578 29.249 9.59878C29.25 9.59678 29.25 9.59478 29.25 9.59178C29.25 9.58878 29.25 9.58478 29.248 9.58178C29.246 9.57878 29.243 9.57478 29.24 9.57178C29.236 9.56978 29.233 9.56678 29.23 9.56578V9.55978C29.231 9.55878 29.231 9.55878 29.232 9.55778C29.232 9.55678 29.233 9.55578 29.233 9.55478C29.233 9.55378 29.233 9.55178 29.232 9.55078C29.232 9.54978 29.231 9.54878 29.231 9.54878L29.23 9.54278C29.231 9.54278 29.231 9.54178 29.232 9.54078C29.232 9.53978 29.232 9.53878 29.232 9.53778C29.232 9.53678 29.232 9.53578 29.231 9.53478C29.231 9.53478 29.23 9.53378 29.229 9.53278V9.52678L29.227 9.48378L29.226 9.48278L29.223 9.52578V9.53178C29.222 9.53178 29.222 9.53278 29.222 9.53278C29.221 9.53378 29.221 9.53578 29.221 9.53578C29.221 9.53678 29.221 9.53778 29.222 9.53878C29.222 9.53878 29.223 9.53978 29.223 9.54078V9.54578C29.222 9.54578 29.221 9.54678 29.221 9.54778C29.22 9.54878 29.22 9.54978 29.22 9.55178C29.22 9.55378 29.22 9.55378 29.221 9.55478C29.221 9.55578 29.222 9.55578 29.223 9.55678V9.56278C29.22 9.56378 29.216 9.56678 29.213 9.56878C29.209 9.57178 29.206 9.57578 29.204 9.57878C29.202 9.58278 29.202 9.58578 29.202 9.58878C29.203 9.59178 29.203 9.59378 29.203 9.59578C29.192 9.60278 29.177 9.61178 29.165 9.62178C29.152 9.63278 29.14 9.64478 29.134 9.65778C29.122 9.68578 29.128 9.71378 29.132 9.72778H29.124C29.119 9.72778 29.115 9.73178 29.115 9.73678C29.115 9.74178 29.119 9.74578 29.124 9.74578H29.131V9.77078V9.82578C29.124 9.82778 29.118 9.83478 29.118 9.84278C29.118 9.84878 29.121 9.85378 29.126 9.85678V10.3148C29.038 10.3888 28.961 10.4718 28.92 10.5598L28.915 9.61878H28.938C28.975 9.61878 29.006 9.58778 29.006 9.55078C29.006 9.51378 28.975 9.48278 28.938 9.48278H28.914L28.909 8.53778H28.938C28.971 8.53778 28.998 8.51078 28.998 8.47778C28.998 8.44978 28.979 8.42578 28.952 8.41878V8.22478V8.13578H28.977C28.994 8.13578 29.008 8.12178 29.008 8.10478C29.008 8.08778 28.994 8.07378 28.977 8.07378H28.948C28.965 8.02278 28.986 7.92578 28.943 7.82678C28.923 7.78078 28.882 7.73678 28.835 7.69978C28.79 7.66278 28.74 7.63078 28.699 7.60778C28.701 7.60178 28.703 7.59378 28.703 7.58478C28.703 7.57378 28.702 7.56178 28.697 7.54978C28.691 7.53678 28.679 7.52478 28.666 7.51478C28.654 7.50478 28.641 7.49778 28.632 7.49278L28.631 7.47078C28.634 7.46878 28.636 7.46578 28.638 7.46278C28.64 7.45978 28.641 7.45578 28.641 7.45178C28.641 7.44778 28.64 7.44278 28.638 7.43978C28.636 7.43678 28.633 7.43378 28.63 7.43178L28.629 7.41378C28.631 7.41178 28.633 7.40978 28.634 7.40778C28.635 7.40478 28.636 7.40178 28.636 7.39878C28.636 7.39478 28.635 7.39178 28.634 7.38878C28.632 7.38678 28.63 7.38478 28.628 7.38278L28.627 7.36278L28.62 7.21278C28.62 7.21078 28.618 7.20978 28.616 7.20978C28.614 7.20978 28.613 7.21078 28.613 7.21278L28.606 7.36278L28.605 7.38278C28.603 7.38478 28.601 7.38678 28.599 7.38878C28.597 7.39178 28.596 7.39578 28.596 7.39878C28.596 7.40178 28.597 7.40478 28.598 7.40778C28.599 7.40978 28.601 7.41178 28.603 7.41378L28.602 7.43178C28.599 7.43378 28.596 7.43678 28.594 7.43978C28.592 7.44378 28.591 7.44778 28.591 7.45178C28.591 7.45578 28.592 7.45978 28.594 7.46278C28.596 7.46578 28.598 7.46878 28.601 7.47078L28.6 7.49278C28.591 7.49778 28.578 7.50578 28.566 7.51478C28.553 7.52478 28.541 7.53678 28.535 7.54978C28.53 7.56178 28.529 7.57378 28.529 7.58478C28.529 7.59378 28.532 7.60178 28.533 7.60778C28.492 7.63078 28.442 7.66278 28.397 7.69978C28.351 7.73778 28.31 7.78178 28.29 7.82678C28.247 7.92578 28.267 8.02278 28.285 8.07378H28.25C28.233 8.07378 28.219 8.08778 28.219 8.10478C28.219 8.12178 28.233 8.13578 28.25 8.13578H28.276V8.21078C28.276 8.21478 28.275 8.21978 28.275 8.22478L28.276 8.23178V8.26278V8.41878C28.249 8.42478 28.229 8.44878 28.229 8.47778C28.229 8.51178 28.256 8.53778 28.289 8.53778H28.318L28.313 9.48278H28.289C28.252 9.48278 28.221 9.51378 28.221 9.55078C28.221 9.58878 28.252 9.61878 28.289 9.61878H28.312L28.308 10.2628C28.245 10.1448 28.137 10.0338 28.018 9.93578C27.887 9.82778 27.742 9.73578 27.624 9.66778C27.629 9.65078 27.634 9.62778 27.636 9.60078C27.637 9.56978 27.633 9.53378 27.618 9.49878V9.49778C27.602 9.46078 27.567 9.42578 27.53 9.39678C27.496 9.36978 27.458 9.34678 27.43 9.33178L27.427 9.26878C27.435 9.26278 27.441 9.25578 27.445 9.24678C27.45 9.23678 27.453 9.22578 27.453 9.21378C27.453 9.20078 27.45 9.18878 27.443 9.17778C27.438 9.16878 27.43 9.16078 27.421 9.15478L27.419 9.10178C27.425 9.09778 27.429 9.09078 27.433 9.08478C27.437 9.07678 27.44 9.06778 27.44 9.05778C27.44 9.04678 27.437 9.03778 27.432 9.02878C27.428 9.02178 27.422 9.01578 27.415 9.01078L27.412 8.95378L27.393 8.52978C27.433 8.53078 27.473 8.52178 27.511 8.50078C27.55 8.47778 27.579 8.44578 27.598 8.40778C27.583 8.42778 27.563 8.44578 27.539 8.45978C27.443 8.51478 27.321 8.48178 27.266 8.38678C27.211 8.29078 27.243 8.16878 27.339 8.11378C27.363 8.09978 27.388 8.09178 27.413 8.08878C27.371 8.08678 27.328 8.09578 27.289 8.11878C27.183 8.17978 27.147 8.31478 27.208 8.42078C27.244 8.48278 27.305 8.52178 27.371 8.52978L27.352 8.95578L27.349 9.01278C27.343 9.01678 27.337 9.02378 27.332 9.03078C27.327 9.03878 27.324 9.04878 27.324 9.05978C27.324 9.06978 27.326 9.07878 27.33 9.08678C27.334 9.09278 27.339 9.09878 27.344 9.10378L27.342 9.15678C27.333 9.16278 27.325 9.17078 27.32 9.17978C27.314 9.19078 27.31 9.20278 27.31 9.21578C27.31 9.22778 27.313 9.23878 27.318 9.24878C27.322 9.25778 27.329 9.26478 27.336 9.27078L27.333 9.33378C27.305 9.34878 27.268 9.37178 27.233 9.39878C27.196 9.42778 27.161 9.46278 27.145 9.49978C27.13 9.53478 27.125 9.57178 27.127 9.60278C27.128 9.62978 27.134 9.65278 27.139 9.66978C27.021 9.73778 26.875 9.82978 26.745 9.93778C26.727 9.95278 26.708 9.96878 26.691 9.98378L26.689 9.63978H26.706C26.726 9.63978 26.742 9.62278 26.742 9.60378C26.742 9.58678 26.73 9.57278 26.715 9.56778V9.45078V9.40178H26.73C26.74 9.40178 26.749 9.39278 26.749 9.38278C26.749 9.37278 26.741 9.36378 26.73 9.36378H26.712C26.723 9.33378 26.735 9.27478 26.709 9.21578C26.697 9.18778 26.672 9.16178 26.644 9.13878C26.617 9.11678 26.586 9.09678 26.562 9.08278C26.563 9.07878 26.564 9.07378 26.565 9.06878C26.565 9.06178 26.564 9.05478 26.561 9.04678C26.558 9.03978 26.551 9.03178 26.543 9.02578C26.536 9.01978 26.528 9.01578 26.522 9.01178L26.521 8.99878C26.523 8.99778 26.524 8.99578 26.525 8.99378C26.526 8.99178 26.527 8.98978 26.527 8.98678C26.527 8.98378 26.526 8.98178 26.525 8.97878C26.524 8.97678 26.522 8.97578 26.521 8.97378L26.52 8.96278C26.522 8.96178 26.522 8.95978 26.523 8.95878C26.524 8.95678 26.524 8.95478 26.524 8.95278C26.524 8.95078 26.523 8.94878 26.522 8.94678C26.521 8.94478 26.52 8.94378 26.519 8.94278L26.518 8.93078L26.514 8.84078C26.514 8.83978 26.513 8.83878 26.512 8.83878C26.511 8.83878 26.51 8.83978 26.51 8.84078L26.506 8.93078V8.94278C26.505 8.94378 26.503 8.94478 26.502 8.94678C26.501 8.94878 26.5 8.95078 26.5 8.95278C26.5 8.95478 26.501 8.95678 26.502 8.95878C26.503 8.95978 26.504 8.96078 26.505 8.96278V8.97378C26.503 8.97478 26.501 8.97678 26.5 8.97878C26.499 8.98078 26.498 8.98378 26.498 8.98678C26.498 8.98878 26.498 8.99078 26.5 8.99378C26.501 8.99578 26.502 8.99778 26.504 8.99878V9.01178C26.498 9.01478 26.49 9.01978 26.483 9.02578C26.475 9.03178 26.468 9.03978 26.465 9.04678C26.462 9.05378 26.461 9.06178 26.461 9.06778C26.461 9.07278 26.462 9.07778 26.464 9.08178C26.44 9.09578 26.409 9.11478 26.382 9.13778C26.354 9.16078 26.33 9.18678 26.318 9.21478C26.292 9.27378 26.304 9.33278 26.315 9.36278H26.294C26.284 9.36278 26.275 9.37078 26.275 9.38178C26.275 9.39178 26.284 9.40078 26.294 9.40078H26.31C26.31 9.42578 26.31 9.45178 26.31 9.47678V9.57078C26.294 9.57478 26.282 9.58878 26.282 9.60678C26.282 9.62678 26.298 9.64278 26.318 9.64278H26.336L26.333 10.2098H26.319C26.297 10.2098 26.278 10.2278 26.278 10.2508C26.278 10.2738 26.296 10.2918 26.319 10.2918H26.333L26.331 11.0538H26.194L26.192 10.4948H26.21C26.24 10.4948 26.264 10.4698 26.264 10.4408C26.264 10.4118 26.24 10.3868 26.21 10.3868H26.191L26.187 9.63678H26.21C26.237 9.63678 26.258 9.61478 26.258 9.58878C26.258 9.56678 26.243 9.54678 26.221 9.54278V9.38878V9.31778H26.241C26.254 9.31778 26.266 9.30678 26.266 9.29278C26.266 9.27878 26.254 9.26878 26.241 9.26878H26.211C26.224 9.22878 26.241 9.15078 26.206 9.07278C26.19 9.03678 26.157 9.00178 26.121 8.97178C26.085 8.94278 26.045 8.91678 26.013 8.89778C26.014 8.89378 26.016 8.88678 26.016 8.87978C26.016 8.87178 26.015 8.86178 26.011 8.85178C26.007 8.84178 25.997 8.83178 25.987 8.82378C25.978 8.81678 25.967 8.80978 25.96 8.80578L25.959 8.78878C25.961 8.78678 25.963 8.78478 25.964 8.78278C25.965 8.77978 25.966 8.77678 25.966 8.77378C25.966 8.76978 25.965 8.76678 25.964 8.76378C25.962 8.76178 25.96 8.75878 25.958 8.75778L25.957 8.74278C25.959 8.74178 25.96 8.73978 25.961 8.73778C25.962 8.73578 25.963 8.73278 25.963 8.73078C25.963 8.72778 25.962 8.72478 25.961 8.72278C25.96 8.72078 25.958 8.71878 25.957 8.71778L25.956 8.70178L25.951 8.58278C25.951 8.58078 25.949 8.57978 25.948 8.57978C25.946 8.57978 25.946 8.58078 25.945 8.58278L25.94 8.70178V8.71778C25.938 8.71878 25.936 8.72078 25.935 8.72278C25.934 8.72478 25.933 8.72778 25.933 8.73078C25.933 8.73278 25.934 8.73578 25.935 8.73778C25.936 8.73978 25.937 8.74078 25.939 8.74278L25.938 8.75778C25.936 8.75878 25.934 8.76178 25.932 8.76378C25.93 8.76678 25.93 8.76978 25.93 8.77378C25.93 8.77678 25.931 8.77978 25.932 8.78278C25.934 8.78578 25.935 8.78778 25.937 8.78878L25.936 8.80578C25.928 8.80978 25.918 8.81578 25.909 8.82378C25.899 8.83178 25.889 8.84178 25.885 8.85178C25.881 8.86178 25.879 8.87178 25.88 8.87978C25.88 8.88678 25.882 8.89378 25.884 8.89778C25.851 8.91678 25.812 8.94178 25.776 8.97178C25.739 9.00178 25.706 9.03678 25.691 9.07278C25.656 9.15178 25.673 9.22878 25.687 9.26878H25.659C25.645 9.26878 25.634 9.27978 25.634 9.29278C25.634 9.30578 25.645 9.31778 25.659 9.31778H25.68C25.68 9.35178 25.68 9.38478 25.68 9.41878V9.54278C25.658 9.54778 25.642 9.56678 25.642 9.58978C25.642 9.61678 25.664 9.63778 25.69 9.63778H25.713L25.71 10.1278H25.572V9.72078C25.572 9.64478 25.513 9.58078 25.438 9.57378C25.443 9.56278 25.446 9.55078 25.446 9.53878C25.446 9.51278 25.435 9.48978 25.417 9.47378V8.57378C25.441 8.57278 25.46 8.55378 25.46 8.52978C25.46 8.50578 25.44 8.48578 25.416 8.48578H25.366C25.39 8.41378 25.42 8.27578 25.359 8.13478C25.33 8.06978 25.272 8.00678 25.206 7.95278C25.142 7.89978 25.07 7.85478 25.012 7.82178C25.015 7.81278 25.017 7.80178 25.018 7.78878C25.019 7.77378 25.017 7.75578 25.009 7.73878C25.001 7.72078 24.984 7.70378 24.966 7.68978C24.949 7.67678 24.931 7.66578 24.917 7.65778L24.916 7.62678C24.92 7.62378 24.923 7.61978 24.925 7.61578C24.927 7.61078 24.929 7.60578 24.929 7.59978C24.929 7.59378 24.927 7.58778 24.924 7.58278C24.921 7.57878 24.918 7.57478 24.913 7.57178L24.912 7.54578C24.915 7.54278 24.917 7.54078 24.919 7.53678C24.921 7.53278 24.922 7.52878 24.922 7.52378C24.922 7.51878 24.921 7.51378 24.918 7.50978C24.916 7.50678 24.913 7.50278 24.91 7.50078L24.909 7.47278L24.899 7.25978C24.899 7.25778 24.897 7.25578 24.894 7.25578C24.891 7.25578 24.889 7.25778 24.889 7.25978L24.879 7.47278L24.878 7.50078C24.875 7.50278 24.872 7.50578 24.87 7.50978C24.868 7.51378 24.866 7.51878 24.866 7.52378C24.866 7.52878 24.867 7.53278 24.869 7.53678C24.871 7.53978 24.873 7.54278 24.876 7.54578L24.875 7.57178C24.87 7.57478 24.867 7.57878 24.864 7.58278C24.861 7.58778 24.859 7.59378 24.859 7.59978C24.859 7.60578 24.86 7.61078 24.863 7.61578C24.865 7.61978 24.868 7.62378 24.872 7.62678L24.871 7.65778C24.857 7.66578 24.839 7.67578 24.822 7.68978C24.803 7.70378 24.787 7.72078 24.779 7.73878C24.771 7.75678 24.769 7.77378 24.77 7.78978C24.771 7.80278 24.773 7.81478 24.776 7.82278C24.718 7.85578 24.646 7.90178 24.582 7.95378C24.516 8.00778 24.458 8.06978 24.429 8.13578C24.367 8.27678 24.397 8.41478 24.421 8.48678H24.379C24.355 8.48678 24.335 8.50678 24.335 8.53078C24.335 8.55478 24.354 8.57478 24.378 8.57478V9.47478C24.36 9.49078 24.349 9.51378 24.349 9.53978C24.349 9.55278 24.352 9.56378 24.357 9.57478C24.282 9.58178 24.223 9.64578 24.223 9.72178V10.1288H24.143V9.06978H24.136C24.144 9.06578 24.152 9.06278 24.152 9.05278C24.152 9.04178 24.145 9.03278 24.135 9.03078V8.97278V8.96178V8.95878C24.135 8.95678 24.135 8.95578 24.135 8.95378V8.92178H24.144C24.151 8.92178 24.156 8.91678 24.156 8.91078C24.156 8.90378 24.151 8.89978 24.144 8.89978H24.131C24.137 8.88078 24.145 8.84378 24.129 8.80678C24.121 8.78978 24.106 8.77378 24.088 8.75878C24.071 8.74478 24.053 8.73278 24.037 8.72378C24.038 8.72178 24.039 8.71878 24.039 8.71478C24.039 8.71078 24.039 8.70678 24.036 8.70178C24.034 8.69678 24.029 8.69278 24.025 8.68878C24.021 8.68578 24.016 8.68278 24.012 8.68078V8.67278C24.013 8.67178 24.014 8.67078 24.014 8.66978C24.014 8.66878 24.015 8.66678 24.015 8.66578C24.015 8.66378 24.015 8.66278 24.014 8.66078C24.013 8.65978 24.012 8.65878 24.011 8.65778V8.65078C24.012 8.65078 24.013 8.64978 24.013 8.64878C24.013 8.64778 24.014 8.64678 24.014 8.64478C24.014 8.64278 24.014 8.64178 24.013 8.64078C24.013 8.63978 24.012 8.63878 24.011 8.63878V8.63178L24.009 8.57578C24.009 8.57478 24.009 8.57478 24.008 8.57478C24.007 8.57478 24.007 8.57478 24.007 8.57578L24.001 8.63178V8.63878C24 8.63978 23.999 8.64078 23.999 8.64078C23.998 8.64178 23.998 8.64378 23.998 8.64478C23.998 8.64578 23.998 8.64678 23.999 8.64878C23.999 8.64978 24 8.65078 24 8.65078V8.65778C23.999 8.65878 23.998 8.65978 23.997 8.66078C23.996 8.66278 23.996 8.66378 23.996 8.66578C23.996 8.66778 23.996 8.66878 23.997 8.66978C23.998 8.67078 23.999 8.67178 24 8.67278V8.68078C23.996 8.68278 23.992 8.68578 23.987 8.68878C23.982 8.69278 23.978 8.69778 23.976 8.70178C23.974 8.70678 23.973 8.71078 23.973 8.71478C23.973 8.71778 23.974 8.72178 23.975 8.72378C23.959 8.73278 23.941 8.74478 23.924 8.75878C23.906 8.77278 23.891 8.78978 23.884 8.80678C23.868 8.84378 23.876 8.87978 23.882 8.89978H23.871C23.865 8.89978 23.86 8.90478 23.86 8.91078C23.86 8.91778 23.865 8.92178 23.871 8.92178H23.88V8.95578V9.02878C23.87 9.03178 23.863 9.03978 23.863 9.05078C23.863 9.05978 23.872 9.06378 23.88 9.06778H23.871V10.1268H23.787L23.778 8.60378H23.808C23.857 8.60378 23.898 8.56378 23.898 8.51378C23.898 8.46478 23.857 8.42378 23.808 8.42378H23.777L23.77 7.17478H23.808C23.852 7.17478 23.888 7.13878 23.888 7.09478C23.888 7.05678 23.862 7.02578 23.827 7.01678V6.75978V6.64178H23.86C23.882 6.64178 23.901 6.62378 23.901 6.60078C23.901 6.57778 23.883 6.55978 23.86 6.55978H23.821C23.844 6.49278 23.871 6.36478 23.814 6.23378C23.787 6.17278 23.733 6.11578 23.672 6.06478C23.612 6.01578 23.546 5.97378 23.492 5.94278C23.495 5.93478 23.497 5.92478 23.498 5.91178C23.499 5.89778 23.497 5.88078 23.49 5.86478C23.483 5.84778 23.467 5.83178 23.45 5.81878C23.434 5.80678 23.417 5.79678 23.405 5.78978L23.403 5.76078C23.407 5.75778 23.41 5.75478 23.412 5.75078C23.414 5.74678 23.416 5.74078 23.416 5.73478C23.416 5.72878 23.414 5.72378 23.411 5.71878C23.409 5.71478 23.405 5.71078 23.401 5.70878L23.4 5.68378C23.403 5.68178 23.405 5.67878 23.407 5.67578C23.409 5.67178 23.41 5.66778 23.41 5.66378C23.41 5.65878 23.409 5.65478 23.406 5.65078C23.404 5.64778 23.401 5.64478 23.399 5.64278L23.398 5.61678L23.389 5.41878C23.389 5.41578 23.386 5.41378 23.384 5.41478C23.382 5.41478 23.38 5.41678 23.38 5.41878L23.371 5.61678L23.37 5.64278C23.367 5.64478 23.364 5.64778 23.362 5.65078C23.359 5.65478 23.358 5.65878 23.358 5.66378C23.358 5.66878 23.359 5.67278 23.361 5.67578C23.363 5.67878 23.365 5.68178 23.367 5.68378L23.366 5.70878C23.362 5.71078 23.358 5.71578 23.356 5.71878C23.353 5.72378 23.352 5.72978 23.352 5.73478C23.352 5.74078 23.354 5.74578 23.356 5.75078C23.358 5.75478 23.361 5.75778 23.364 5.76078L23.363 5.78978C23.35 5.79678 23.333 5.80678 23.317 5.81878C23.3 5.83178 23.284 5.84778 23.277 5.86478C23.27 5.88078 23.268 5.89778 23.268 5.91178C23.269 5.92378 23.271 5.93478 23.274 5.94278C23.22 5.97378 23.153 6.01578 23.094 6.06478C23.033 6.11478 22.979 6.17278 22.952 6.23378C22.895 6.36478 22.923 6.49278 22.945 6.55978H22.899C22.876 6.55978 22.858 6.57778 22.858 6.60078C22.858 6.62278 22.876 6.64178 22.899 6.64178H22.932V6.74178C22.932 6.74778 22.932 6.75378 22.931 6.75978L22.932 6.76878V6.80978V7.01578C22.897 7.02378 22.87 7.05578 22.87 7.09378C22.87 7.13778 22.906 7.17378 22.95 7.17378H22.988L22.981 8.42278H22.95C22.901 8.42278 22.86 8.46378 22.86 8.51278C22.86 8.56178 22.9 8.60278 22.95 8.60278H22.98L22.975 9.46178C22.892 9.30378 22.752 9.15378 22.591 9.02178C22.418 8.87978 22.226 8.75778 22.07 8.66878C22.077 8.64578 22.084 8.61478 22.086 8.57878C22.088 8.53778 22.083 8.49078 22.062 8.44378C22.04 8.39478 21.995 8.34878 21.946 8.30978C21.9 8.27378 21.851 8.24478 21.814 8.22378L21.81 8.14178C21.82 8.13378 21.828 8.12378 21.834 8.11278C21.841 8.09978 21.845 8.08478 21.845 8.06878C21.845 8.05178 21.84 8.03478 21.832 8.02178C21.825 8.00978 21.815 7.99978 21.803 7.99178L21.8 7.92078C21.808 7.91478 21.814 7.90678 21.818 7.89878C21.824 7.88778 21.827 7.87578 21.827 7.86378C21.827 7.84978 21.823 7.83678 21.816 7.82578C21.811 7.81678 21.803 7.80778 21.794 7.80178L21.791 7.72678L21.765 7.15278C21.765 7.14578 21.759 7.14078 21.752 7.14078C21.745 7.14078 21.738 7.14578 21.738 7.15278L21.712 7.72678L21.709 7.80178C21.7 7.80778 21.693 7.81578 21.687 7.82578C21.68 7.83678 21.676 7.84978 21.676 7.86378C21.676 7.87678 21.679 7.88878 21.685 7.89878C21.69 7.90778 21.696 7.91478 21.703 7.92078L21.7 7.99178C21.688 7.99978 21.678 8.00978 21.671 8.02178C21.663 8.03578 21.658 8.05178 21.658 8.06878C21.658 8.08478 21.662 8.09978 21.669 8.11278C21.675 8.12378 21.684 8.13378 21.694 8.14178L21.69 8.22378C21.653 8.24378 21.604 8.27378 21.558 8.30978C21.508 8.34778 21.463 8.39378 21.442 8.44278C21.421 8.48978 21.416 8.53678 21.418 8.57878C21.42 8.61478 21.427 8.64578 21.434 8.66878C21.278 8.75878 21.086 8.87978 20.913 9.02178C20.888 9.04178 20.865 9.06378 20.841 9.08578L20.839 8.62878H20.862C20.889 8.62878 20.91 8.60778 20.91 8.58078C20.91 8.55878 20.894 8.53878 20.873 8.53378V8.37978V8.30878H20.893C20.906 8.30878 20.918 8.29778 20.918 8.28378C20.918 8.27078 20.906 8.25978 20.893 8.25978H20.87C20.884 8.21978 20.9 8.14178 20.866 8.06378C20.85 8.02778 20.817 7.99278 20.781 7.96278C20.745 7.93378 20.705 7.90778 20.673 7.88978C20.674 7.88478 20.676 7.87878 20.676 7.87178C20.676 7.86278 20.675 7.85378 20.671 7.84378C20.667 7.83378 20.657 7.82378 20.647 7.81578C20.638 7.80878 20.627 7.80178 20.62 7.79778L20.619 7.78078C20.622 7.77878 20.623 7.77678 20.624 7.77478C20.625 7.77178 20.626 7.76878 20.626 7.76578C20.626 7.76178 20.625 7.75878 20.624 7.75578C20.622 7.75378 20.62 7.75078 20.618 7.74878L20.617 7.73378C20.619 7.73278 20.62 7.73078 20.621 7.72878C20.622 7.72678 20.623 7.72378 20.623 7.72178C20.623 7.71878 20.622 7.71578 20.621 7.71378C20.62 7.71178 20.618 7.70978 20.617 7.70878L20.616 7.69278L20.611 7.57378C20.611 7.57178 20.61 7.57078 20.608 7.57078C20.606 7.57078 20.606 7.57178 20.606 7.57378L20.6 7.69278V7.70878C20.598 7.70978 20.596 7.71178 20.595 7.71378C20.594 7.71578 20.593 7.71878 20.593 7.72178C20.593 7.72378 20.594 7.72678 20.595 7.72878C20.596 7.73078 20.597 7.73178 20.599 7.73378L20.598 7.74878C20.596 7.75078 20.594 7.75278 20.592 7.75578C20.59 7.75878 20.589 7.76178 20.589 7.76578C20.589 7.76878 20.59 7.77178 20.591 7.77478C20.592 7.77778 20.594 7.77978 20.596 7.78078L20.595 7.79778C20.587 7.80178 20.577 7.80778 20.568 7.81578C20.558 7.82378 20.548 7.83278 20.544 7.84378C20.539 7.85378 20.538 7.86378 20.539 7.87178C20.539 7.87878 20.541 7.88478 20.542 7.88978C20.509 7.90878 20.47 7.93378 20.434 7.96278C20.397 7.99278 20.365 8.02778 20.349 8.06378C20.314 8.14278 20.331 8.21978 20.345 8.25978H20.317C20.304 8.25978 20.293 8.27078 20.293 8.28378C20.293 8.29778 20.304 8.30878 20.317 8.30878H20.338C20.338 8.34278 20.338 8.37578 20.338 8.40978V8.53378C20.316 8.53878 20.301 8.55778 20.301 8.58078C20.301 8.60778 20.322 8.62878 20.349 8.62878H20.372L20.368 9.37978H20.349C20.319 9.37978 20.295 9.40378 20.295 9.43378C20.295 9.46378 20.319 9.48778 20.349 9.48778H20.367L20.364 10.4948H20.264V9.17178H19.675C19.78 8.89078 19.948 8.26278 19.666 7.62078C19.544 7.34278 19.297 7.07878 19.018 6.84878C18.745 6.62478 18.443 6.43278 18.196 6.29178C18.207 6.25578 18.219 6.20678 18.221 6.15078C18.224 6.08678 18.216 6.01178 18.184 5.93778L18.183 5.93678C18.149 5.85978 18.077 5.78778 17.999 5.72778C17.927 5.67078 17.849 5.62478 17.791 5.59278L17.785 5.46378C17.8 5.45178 17.813 5.43578 17.823 5.41778C17.834 5.39678 17.84 5.37378 17.84 5.34878C17.84 5.32178 17.832 5.29578 17.819 5.27378C17.807 5.25478 17.792 5.23778 17.773 5.22578L17.768 5.11378C17.78 5.10378 17.79 5.09278 17.797 5.07878C17.806 5.06178 17.811 5.04278 17.811 5.02278C17.811 5.00078 17.805 4.97978 17.794 4.96278C17.786 4.94778 17.773 4.93478 17.759 4.92578L17.754 4.80678L17.714 3.91378C17.797 3.91678 17.882 3.90478 17.96 3.86078C18.041 3.81378 18.103 3.74578 18.142 3.66778C18.11 3.70978 18.069 3.74778 18.019 3.77578C17.82 3.89078 17.565 3.82178 17.45 3.62278C17.335 3.42378 17.403 3.16878 17.603 3.05378C17.652 3.02578 17.705 3.00778 17.758 3.00078C17.671 2.99578 17.581 3.01478 17.5 3.06178C17.28 3.18878 17.204 3.47078 17.331 3.69178C17.406 3.82178 17.535 3.89378 17.673 3.91078L17.632 4.80678L17.627 4.92578C17.613 4.93578 17.601 4.94878 17.592 4.96278C17.582 4.97978 17.575 5.00078 17.575 5.02278C17.575 5.04278 17.58 5.06178 17.589 5.07878C17.596 5.09278 17.606 5.10378 17.618 5.11378L17.613 5.22578C17.594 5.23778 17.579 5.25378 17.567 5.27378C17.554 5.29578 17.547 5.32178 17.547 5.34878C17.547 5.37278 17.553 5.39678 17.564 5.41778C17.574 5.43478 17.587 5.45078 17.603 5.46378L17.597 5.59278C17.539 5.62478 17.461 5.67178 17.389 5.72778C17.31 5.78878 17.239 5.86078 17.205 5.93678C17.172 6.01178 17.164 6.08678 17.167 6.15178C17.17 6.20778 17.181 6.25678 17.192 6.29278C16.946 6.43378 16.643 6.62578 16.37 6.84978C16.091 7.07878 15.844 7.34278 15.722 7.62178C15.439 8.26478 15.608 8.89178 15.713 9.17278H15.071V10.4958H14.971L14.968 9.48878H14.981C15.011 9.48878 15.035 9.46478 15.035 9.43478C15.035 9.40578 15.011 9.38078 14.981 9.38078H14.962L14.958 8.62978H14.981C15.008 8.62978 15.029 8.60878 15.029 8.58178C15.029 8.55878 15.014 8.53978 14.992 8.53478V8.41078C14.992 8.37678 14.992 8.34378 14.992 8.30978H15.012C15.025 8.30978 15.036 8.29878 15.036 8.28478C15.036 8.27178 15.025 8.26078 15.012 8.26078H14.984C14.998 8.22078 15.015 8.14278 14.98 8.06478C14.964 8.02878 14.931 7.99378 14.895 7.96378C14.859 7.93478 14.819 7.90878 14.787 7.89078C14.789 7.88578 14.79 7.87978 14.79 7.87278C14.791 7.86378 14.79 7.85478 14.785 7.84478C14.781 7.83478 14.771 7.82478 14.761 7.81678C14.752 7.80978 14.741 7.80278 14.734 7.79878L14.733 7.78178C14.735 7.77978 14.737 7.77778 14.738 7.77578C14.74 7.77278 14.741 7.76978 14.741 7.76678C14.741 7.76278 14.74 7.75978 14.738 7.75678C14.737 7.75478 14.735 7.75178 14.732 7.74978L14.731 7.73478C14.733 7.73378 14.734 7.73178 14.735 7.72978C14.736 7.72778 14.737 7.72478 14.737 7.72278C14.737 7.71978 14.736 7.71678 14.735 7.71478C14.734 7.71278 14.732 7.71078 14.73 7.70978V7.69378L14.724 7.57478C14.724 7.57278 14.723 7.57178 14.722 7.57178C14.721 7.57178 14.719 7.57278 14.719 7.57478L14.714 7.69378L14.713 7.70978C14.711 7.71078 14.71 7.71278 14.709 7.71478C14.708 7.71678 14.707 7.71978 14.707 7.72278C14.707 7.72478 14.707 7.72778 14.709 7.72978C14.71 7.73178 14.712 7.73278 14.713 7.73478L14.712 7.74978C14.71 7.75178 14.708 7.75378 14.706 7.75678C14.704 7.75978 14.704 7.76278 14.704 7.76678C14.704 7.76978 14.705 7.77278 14.706 7.77578C14.707 7.77878 14.709 7.78078 14.711 7.78178L14.71 7.79878C14.702 7.80278 14.692 7.80878 14.683 7.81678C14.672 7.82478 14.663 7.83378 14.659 7.84478C14.655 7.85478 14.654 7.86478 14.654 7.87278C14.654 7.87978 14.656 7.88578 14.657 7.89078C14.625 7.90978 14.585 7.93478 14.549 7.96378C14.512 7.99378 14.48 8.02878 14.464 8.06478C14.429 8.14378 14.446 8.22078 14.459 8.26078H14.436C14.423 8.26078 14.411 8.27178 14.411 8.28478C14.411 8.29878 14.423 8.30978 14.436 8.30978H14.456V8.38078V8.53478C14.435 8.53978 14.419 8.55878 14.419 8.58178C14.419 8.60878 14.441 8.62978 14.467 8.62978H14.49L14.488 9.08678C14.464 9.06578 14.441 9.04378 14.416 9.02278C14.243 8.88078 14.051 8.75878 13.895 8.66978C13.902 8.64678 13.909 8.61578 13.911 8.57978C13.913 8.53878 13.908 8.49178 13.887 8.44378C13.866 8.39478 13.82 8.34978 13.771 8.31078C13.725 8.27478 13.676 8.24578 13.639 8.22478L13.635 8.14278C13.645 8.13478 13.653 8.12478 13.66 8.11378C13.667 8.10078 13.671 8.08578 13.671 8.06978C13.671 8.05278 13.666 8.03578 13.658 8.02278C13.651 8.01078 13.641 8.00078 13.629 7.99278L13.626 7.92178C13.633 7.91578 13.64 7.90778 13.644 7.89978C13.65 7.88878 13.653 7.87678 13.653 7.86478C13.653 7.85078 13.649 7.83778 13.642 7.82678C13.636 7.81778 13.629 7.80878 13.62 7.80278L13.617 7.72778L13.591 7.15378C13.591 7.14678 13.585 7.14078 13.577 7.14178C13.57 7.14178 13.565 7.14778 13.564 7.15378L13.538 7.72778L13.535 7.80278C13.526 7.80878 13.518 7.81678 13.513 7.82678C13.506 7.83778 13.502 7.85078 13.502 7.86478C13.502 7.87778 13.505 7.88978 13.511 7.89978C13.516 7.90878 13.522 7.91578 13.529 7.92178L13.526 7.99278C13.514 8.00078 13.504 8.01078 13.497 8.02278C13.489 8.03678 13.484 8.05278 13.484 8.06978C13.484 8.08578 13.488 8.10078 13.495 8.11378C13.501 8.12478 13.509 8.13478 13.519 8.14278L13.515 8.22478C13.478 8.24478 13.429 8.27478 13.383 8.31078C13.334 8.34878 13.288 8.39478 13.267 8.44378C13.246 8.49078 13.241 8.53878 13.243 8.57978C13.245 8.61578 13.252 8.64678 13.259 8.66978C13.103 8.75978 12.911 8.88078 12.738 9.02278C12.578 9.15478 12.437 9.30478 12.354 9.46278L12.349 8.60378H12.379C12.429 8.60378 12.469 8.56378 12.469 8.51378C12.469 8.46478 12.429 8.42378 12.379 8.42378H12.348L12.341 7.17478H12.379C12.423 7.17478 12.459 7.13878 12.459 7.09478C12.459 7.05678 12.433 7.02478 12.397 7.01678V6.81078V6.76978L12.398 6.76078C12.397 6.75478 12.397 6.74878 12.397 6.74278V6.64278H12.43C12.453 6.64278 12.471 6.62478 12.471 6.60178C12.471 6.57878 12.453 6.56078 12.43 6.56078H12.384C12.407 6.49378 12.434 6.36578 12.377 6.23478C12.35 6.17378 12.296 6.11678 12.235 6.06578C12.175 6.01678 12.109 5.97478 12.055 5.94378C12.057 5.93578 12.06 5.92578 12.061 5.91278C12.061 5.89878 12.06 5.88178 12.052 5.86578C12.045 5.84878 12.029 5.83278 12.012 5.81978C11.996 5.80778 11.979 5.79778 11.966 5.79078L11.965 5.76178C11.968 5.75878 11.971 5.75578 11.974 5.75178C11.976 5.74778 11.978 5.74178 11.978 5.73578C11.978 5.72978 11.976 5.72478 11.974 5.71978C11.972 5.71578 11.968 5.71178 11.964 5.70978L11.963 5.68478C11.965 5.68278 11.967 5.67978 11.969 5.67678C11.971 5.67278 11.972 5.66878 11.972 5.66478C11.972 5.65978 11.971 5.65578 11.968 5.65178C11.966 5.64878 11.964 5.64578 11.96 5.64378L11.959 5.61778L11.95 5.41978C11.95 5.41678 11.948 5.41578 11.946 5.41578C11.944 5.41578 11.941 5.41778 11.941 5.41978L11.932 5.61778L11.931 5.64378C11.928 5.64578 11.926 5.64878 11.924 5.65178C11.922 5.65578 11.92 5.65978 11.92 5.66478C11.92 5.66978 11.921 5.67378 11.923 5.67678C11.925 5.67978 11.927 5.68278 11.93 5.68478L11.929 5.70978C11.925 5.71178 11.922 5.71678 11.919 5.71978C11.916 5.72478 11.914 5.73078 11.914 5.73578C11.914 5.74178 11.915 5.74678 11.918 5.75178C11.92 5.75578 11.923 5.75878 11.927 5.76178L11.925 5.79078C11.912 5.79778 11.896 5.80778 11.88 5.81978C11.863 5.83278 11.847 5.84878 11.84 5.86578C11.833 5.88178 11.831 5.89878 11.832 5.91278C11.832 5.92478 11.835 5.93578 11.838 5.94378C11.784 5.97478 11.718 6.01678 11.658 6.06578C11.597 6.11578 11.543 6.17378 11.516 6.23478C11.459 6.36578 11.486 6.49378 11.509 6.56078H11.47C11.447 6.56078 11.429 6.57878 11.429 6.60178C11.429 6.62378 11.447 6.64278 11.47 6.64278H11.503V6.76078V7.01778C11.468 7.02578 11.442 7.05778 11.442 7.09578C11.442 7.13978 11.478 7.17578 11.522 7.17578H11.56L11.553 8.42478H11.522C11.473 8.42478 11.432 8.46578 11.432 8.51478C11.432 8.56378 11.473 8.60478 11.522 8.60478H11.552L11.543 10.1278H11.459V9.06878H11.452C11.46 9.06478 11.468 9.06178 11.468 9.05178C11.468 9.04078 11.461 9.03178 11.451 9.02978V8.95678V8.92178H11.46C11.466 8.92178 11.471 8.91678 11.471 8.91078C11.471 8.90378 11.466 8.89978 11.46 8.89978H11.449C11.455 8.88078 11.463 8.84378 11.447 8.80678C11.439 8.78978 11.424 8.77378 11.407 8.75878C11.39 8.74478 11.371 8.73278 11.356 8.72378C11.357 8.72178 11.358 8.71878 11.358 8.71478C11.358 8.71078 11.358 8.70678 11.356 8.70178C11.354 8.69678 11.349 8.69278 11.345 8.68878C11.34 8.68578 11.336 8.68278 11.332 8.68078V8.67278C11.333 8.67178 11.334 8.67078 11.335 8.66978C11.335 8.66878 11.336 8.66678 11.336 8.66578C11.336 8.66378 11.336 8.66278 11.335 8.66078C11.334 8.65978 11.333 8.65878 11.332 8.65778V8.65078C11.333 8.65078 11.334 8.64978 11.334 8.64878C11.334 8.64778 11.335 8.64678 11.335 8.64478C11.335 8.64278 11.335 8.64178 11.334 8.64078C11.334 8.63978 11.333 8.63878 11.332 8.63878V8.63178L11.33 8.57578C11.328 8.57578 11.328 8.57478 11.328 8.57578L11.326 8.63178V8.63878C11.325 8.63978 11.324 8.64078 11.324 8.64078C11.323 8.64178 11.323 8.64378 11.323 8.64478C11.323 8.64578 11.323 8.64678 11.324 8.64878C11.324 8.64978 11.325 8.65078 11.326 8.65078V8.65778C11.325 8.65878 11.324 8.65978 11.323 8.66078C11.322 8.66278 11.322 8.66378 11.322 8.66578C11.322 8.66778 11.322 8.66878 11.323 8.66978C11.324 8.67078 11.325 8.67178 11.325 8.67278V8.68078C11.322 8.68278 11.317 8.68578 11.312 8.68878C11.307 8.69278 11.303 8.69778 11.301 8.70178C11.299 8.70678 11.299 8.71078 11.299 8.71478C11.299 8.71778 11.3 8.72178 11.301 8.72378C11.285 8.73278 11.267 8.74478 11.25 8.75878C11.233 8.77278 11.217 8.78978 11.21 8.80678C11.194 8.84378 11.202 8.87978 11.208 8.89978H11.195C11.188 8.89978 11.183 8.90478 11.183 8.91078C11.183 8.91778 11.188 8.92178 11.195 8.92178H11.204V8.95078C11.204 8.95278 11.204 8.95378 11.204 8.95578V8.95878V8.96978V9.02778C11.194 9.03078 11.186 9.03878 11.186 9.04978C11.186 9.05878 11.195 9.06278 11.203 9.06678H11.196V10.1258H11.116V9.71878C11.116 9.64178 11.057 9.57878 10.982 9.57178C10.987 9.56078 10.99 9.54878 10.99 9.53678C10.99 9.51078 10.979 9.48778 10.961 9.47178V8.57178C10.985 8.57078 11.004 8.55178 11.004 8.52778C11.004 8.50378 10.984 8.48378 10.96 8.48378H10.918C10.942 8.41178 10.972 8.27378 10.911 8.13278C10.882 8.06778 10.824 8.00478 10.758 7.95078C10.694 7.89778 10.622 7.85278 10.564 7.81978C10.567 7.81078 10.569 7.79978 10.57 7.78678C10.571 7.77178 10.569 7.75378 10.561 7.73578C10.553 7.71778 10.536 7.70078 10.517 7.68678C10.5 7.67378 10.482 7.66278 10.468 7.65478L10.467 7.62378C10.471 7.62078 10.474 7.61678 10.476 7.61278C10.479 7.60778 10.48 7.60278 10.48 7.59678C10.48 7.59078 10.478 7.58478 10.475 7.57978C10.472 7.57578 10.469 7.57178 10.464 7.56878L10.463 7.54278C10.466 7.53978 10.468 7.53778 10.47 7.53378C10.472 7.52978 10.473 7.52578 10.473 7.52078C10.473 7.51578 10.471 7.51078 10.469 7.50678C10.467 7.50378 10.464 7.49978 10.461 7.49778L10.46 7.46978L10.451 7.25678C10.451 7.25378 10.448 7.25178 10.446 7.25278C10.444 7.25278 10.442 7.25478 10.441 7.25678L10.432 7.46978L10.431 7.49778C10.428 7.49978 10.425 7.50278 10.423 7.50678C10.421 7.51078 10.419 7.51578 10.419 7.52078C10.419 7.52578 10.42 7.52978 10.422 7.53378C10.424 7.53678 10.426 7.53978 10.429 7.54278L10.428 7.56878C10.424 7.57178 10.42 7.57578 10.417 7.57978C10.414 7.58478 10.412 7.59078 10.412 7.59678C10.412 7.60278 10.414 7.60778 10.416 7.61278C10.418 7.61678 10.421 7.62078 10.425 7.62378L10.424 7.65478C10.41 7.66278 10.392 7.67278 10.375 7.68678C10.357 7.70078 10.34 7.71778 10.332 7.73578C10.324 7.75378 10.322 7.77078 10.323 7.78578C10.324 7.79878 10.326 7.81078 10.329 7.81878C10.271 7.85178 10.199 7.89778 10.135 7.94978C10.069 8.00378 10.011 8.06578 9.982 8.13178C9.92 8.27278 9.95 8.41078 9.974 8.48278H9.924C9.9 8.48278 9.88 8.50278 9.88 8.52678C9.88 8.55078 9.899 8.57078 9.923 8.57078V9.47078C9.905 9.48678 9.894 9.50978 9.894 9.53578C9.894 9.54878 9.897 9.55978 9.902 9.57078C9.827 9.57778 9.768 9.64178 9.768 9.71778V10.1248H9.63L9.627 9.63478H9.65C9.677 9.63478 9.698 9.61278 9.698 9.58678C9.698 9.56378 9.682 9.54478 9.661 9.53978V9.41578C9.661 9.38178 9.661 9.34878 9.661 9.31478H9.681C9.695 9.31478 9.706 9.30378 9.706 9.28978C9.706 9.27578 9.695 9.26578 9.681 9.26578H9.641C9.655 9.22578 9.672 9.14778 9.637 9.06978C9.621 9.03378 9.588 8.99878 9.552 8.96878C9.516 8.93978 9.477 8.91378 9.444 8.89478C9.446 8.89078 9.447 8.88378 9.448 8.87678C9.448 8.86878 9.447 8.85878 9.443 8.84878C9.439 8.83878 9.429 8.82878 9.419 8.82078C9.41 8.81378 9.399 8.80678 9.392 8.80278L9.391 8.78578C9.393 8.78378 9.395 8.78178 9.396 8.77978C9.397 8.77678 9.398 8.77378 9.398 8.77078C9.398 8.76678 9.397 8.76378 9.396 8.76078C9.394 8.75878 9.392 8.75578 9.39 8.75478L9.389 8.73978C9.391 8.73878 9.392 8.73678 9.393 8.73478C9.394 8.73278 9.395 8.72978 9.395 8.72778C9.395 8.72478 9.394 8.72178 9.393 8.71978C9.392 8.71778 9.39 8.71578 9.388 8.71478V8.69878L9.381 8.58178C9.381 8.57978 9.38 8.57878 9.378 8.57878C9.377 8.57878 9.376 8.57978 9.375 8.58178L9.37 8.70078L9.369 8.71678C9.367 8.71778 9.366 8.71978 9.365 8.72178C9.364 8.72378 9.363 8.72678 9.363 8.72978C9.363 8.73178 9.363 8.73478 9.365 8.73678C9.366 8.73878 9.368 8.73978 9.369 8.74178L9.368 8.75678C9.366 8.75778 9.364 8.76078 9.362 8.76278C9.36 8.76578 9.36 8.76878 9.36 8.77278C9.36 8.77578 9.361 8.77878 9.362 8.78178C9.363 8.78478 9.365 8.78678 9.367 8.78778L9.366 8.80478C9.358 8.80878 9.348 8.81478 9.339 8.82278C9.328 8.83078 9.319 8.84078 9.315 8.85078C9.311 8.86078 9.31 8.87078 9.31 8.87878C9.31 8.88578 9.312 8.89278 9.313 8.89678C9.281 8.91578 9.241 8.94078 9.205 8.97078C9.168 9.00078 9.136 9.03578 9.12 9.07178C9.085 9.15078 9.102 9.22778 9.115 9.26778H9.091C9.078 9.26778 9.066 9.27878 9.066 9.29178C9.066 9.30478 9.077 9.31678 9.091 9.31678H9.111V9.38778V9.54178C9.09 9.54678 9.074 9.56578 9.074 9.58778C9.074 9.61478 9.096 9.63578 9.122 9.63578H9.145L9.141 10.3858H9.122C9.092 10.3858 9.068 10.4098 9.068 10.4398C9.068 10.4698 9.092 10.4938 9.122 10.4938H9.14L9.138 11.0528H9.012V10.3268C9.019 10.3218 9.023 10.3148 9.023 10.3068C9.023 10.2958 9.015 10.2858 9.005 10.2838V10.2228V10.2118V10.2088C9.005 10.2068 9.005 10.2048 9.005 10.2038V10.1748H9.015C9.022 10.1748 9.027 10.1688 9.027 10.1628C9.027 10.1558 9.022 10.1508 9.015 10.1508H9.001C9.008 10.1308 9.016 10.0928 8.999 10.0538C8.991 10.0358 8.975 10.0188 8.957 10.0038C8.939 9.98878 8.919 9.97678 8.903 9.96778C8.904 9.96478 8.905 9.96278 8.905 9.95878C8.905 9.95478 8.905 9.94978 8.903 9.94478C8.901 9.93978 8.896 9.93478 8.891 9.93078C8.886 9.92678 8.881 9.92378 8.877 9.92178V9.91278C8.878 9.91178 8.879 9.91078 8.879 9.90978C8.88 9.90878 8.88 9.90678 8.88 9.90578C8.88 9.90378 8.88 9.90278 8.879 9.90078C8.878 9.89978 8.877 9.89878 8.876 9.89778V9.89078C8.877 9.88978 8.878 9.88878 8.878 9.88878C8.878 9.88778 8.879 9.88578 8.879 9.88478C8.879 9.88378 8.879 9.88178 8.878 9.88078C8.877 9.87978 8.876 9.87878 8.875 9.87878V9.87078L8.873 9.81178C8.873 9.81078 8.872 9.81078 8.872 9.81078C8.871 9.81078 8.87 9.81078 8.87 9.81178L8.868 9.87078V9.87878C8.867 9.87878 8.866 9.87978 8.865 9.88078C8.865 9.88178 8.864 9.88278 8.864 9.88478C8.864 9.88578 8.864 9.88778 8.865 9.88878C8.865 9.88978 8.866 9.89078 8.867 9.89078V9.89778C8.866 9.89878 8.865 9.89978 8.864 9.90078C8.863 9.90278 8.862 9.90378 8.862 9.90578C8.862 9.90778 8.862 9.90878 8.863 9.90978C8.863 9.91078 8.865 9.91178 8.865 9.91278V9.92178C8.861 9.92378 8.856 9.92678 8.851 9.93078C8.846 9.93478 8.841 9.93978 8.839 9.94478C8.837 9.94978 8.836 9.95478 8.837 9.95878C8.837 9.96278 8.838 9.96578 8.839 9.96778C8.823 9.97678 8.803 9.98978 8.785 10.0038C8.767 10.0188 8.751 10.0358 8.743 10.0538C8.726 10.0928 8.734 10.1308 8.741 10.1508H8.73C8.723 10.1508 8.718 10.1558 8.718 10.1628C8.718 10.1698 8.723 10.1748 8.73 10.1748H8.739V10.2098V10.2858C8.729 10.2888 8.721 10.2978 8.721 10.3088C8.721 10.3168 8.725 10.3238 8.732 10.3288V11.0548H8.704C8.707 11.0508 8.708 11.0448 8.708 11.0398C8.708 11.0228 8.696 11.0088 8.68 11.0038V10.8878V10.8348H8.695C8.705 10.8348 8.714 10.8258 8.714 10.8158C8.714 10.8058 8.705 10.7968 8.695 10.7968H8.678C8.688 10.7668 8.701 10.7078 8.675 10.6488C8.663 10.6208 8.638 10.5948 8.61 10.5718C8.583 10.5498 8.553 10.5308 8.528 10.5158C8.529 10.5118 8.53 10.5068 8.53 10.5018C8.53 10.4948 8.53 10.4878 8.526 10.4808C8.523 10.4728 8.515 10.4658 8.508 10.4598C8.501 10.4548 8.493 10.4498 8.487 10.4468V10.4338C8.489 10.4328 8.49 10.4308 8.491 10.4288C8.492 10.4268 8.493 10.4248 8.493 10.4218C8.493 10.4188 8.493 10.4168 8.491 10.4148C8.49 10.4128 8.489 10.4108 8.487 10.4098V10.3988C8.488 10.3978 8.489 10.3968 8.49 10.3948C8.491 10.3928 8.491 10.3908 8.491 10.3898C8.491 10.3878 8.491 10.3858 8.489 10.3838C8.488 10.3828 8.487 10.3808 8.486 10.3798V10.3678L8.482 10.2778C8.482 10.2768 8.481 10.2758 8.48 10.2758C8.479 10.2758 8.478 10.2768 8.478 10.2778L8.474 10.3678L8.473 10.3798C8.472 10.3808 8.471 10.3818 8.47 10.3838C8.469 10.3858 8.468 10.3878 8.468 10.3898C8.468 10.3918 8.468 10.3938 8.469 10.3948C8.47 10.3968 8.471 10.3978 8.472 10.3988V10.4098C8.47 10.4108 8.469 10.4128 8.468 10.4148C8.467 10.4168 8.466 10.4188 8.466 10.4218C8.466 10.4238 8.467 10.4268 8.468 10.4288C8.469 10.4308 8.471 10.4318 8.472 10.4338V10.4468C8.466 10.4498 8.459 10.4548 8.451 10.4598C8.443 10.4658 8.436 10.4728 8.433 10.4808C8.43 10.4878 8.428 10.4958 8.429 10.5018C8.429 10.5068 8.431 10.5118 8.432 10.5158C8.407 10.5298 8.377 10.5488 8.35 10.5718C8.322 10.5948 8.298 10.6208 8.285 10.6488C8.259 10.7078 8.272 10.7668 8.282 10.7968H8.261C8.251 10.7968 8.243 10.8058 8.243 10.8158C8.243 10.8258 8.251 10.8348 8.261 10.8348H8.277C8.277 10.8598 8.277 10.8858 8.277 10.9108V11.0048C8.261 11.0088 8.249 11.0228 8.249 11.0408C8.249 11.0458 8.25 11.0518 8.252 11.0558H8.221C8.224 11.0518 8.224 11.0458 8.224 11.0408C8.224 11.0238 8.213 11.0098 8.197 11.0048V10.8888V10.8358H8.212C8.222 10.8358 8.231 10.8268 8.231 10.8168C8.231 10.8068 8.222 10.7978 8.212 10.7978H8.195C8.205 10.7678 8.218 10.7088 8.192 10.6498C8.18 10.6218 8.155 10.5958 8.127 10.5728C8.1 10.5508 8.07 10.5318 8.045 10.5168C8.046 10.5128 8.047 10.5078 8.047 10.5028C8.047 10.4958 8.047 10.4888 8.043 10.4818C8.039 10.4738 8.032 10.4668 8.025 10.4608C8.018 10.4558 8.01 10.4508 8.004 10.4478V10.4348C8.006 10.4338 8.007 10.4318 8.008 10.4298C8.009 10.4278 8.01 10.4258 8.01 10.4228C8.01 10.4198 8.009 10.4178 8.008 10.4158C8.007 10.4138 8.006 10.4118 8.004 10.4108V10.3998C8.005 10.3988 8.006 10.3978 8.007 10.3958C8.008 10.3938 8.008 10.3918 8.008 10.3908C8.008 10.3888 8.008 10.3868 8.006 10.3848C8.005 10.3838 8.004 10.3818 8.003 10.3808L8.002 10.3688L7.998 10.2788C7.998 10.2778 7.997 10.2768 7.996 10.2768C7.996 10.2768 7.994 10.2778 7.994 10.2788L7.989 10.3688V10.3808C7.988 10.3818 7.987 10.3828 7.986 10.3848C7.985 10.3868 7.984 10.3888 7.984 10.3908C7.984 10.3928 7.984 10.3948 7.985 10.3958C7.986 10.3968 7.987 10.3988 7.988 10.3998V10.4108C7.986 10.4118 7.985 10.4138 7.984 10.4158C7.983 10.4178 7.982 10.4198 7.982 10.4228C7.982 10.4248 7.982 10.4278 7.984 10.4298C7.985 10.4318 7.987 10.4328 7.988 10.4348V10.4478C7.982 10.4508 7.974 10.4558 7.967 10.4608C7.959 10.4668 7.952 10.4738 7.949 10.4818C7.946 10.4888 7.945 10.4968 7.945 10.5028C7.945 10.5078 7.947 10.5128 7.947 10.5168C7.923 10.5308 7.892 10.5498 7.865 10.5728C7.837 10.5958 7.813 10.6218 7.801 10.6498C7.775 10.7088 7.787 10.7678 7.798 10.7978H7.777C7.767 10.7978 7.758 10.8068 7.758 10.8168C7.758 10.8268 7.767 10.8358 7.777 10.8358H7.793C7.793 10.8608 7.793 10.8868 7.793 10.9118V11.0058C7.777 11.0098 7.765 11.0238 7.765 11.0418C7.765 11.0468 7.766 11.0528 7.768 11.0568H7.732V10.0878C7.732 10.0158 7.676 9.95578 7.606 9.94878C7.611 9.93878 7.613 9.92778 7.613 9.91578C7.613 9.89178 7.602 9.86978 7.585 9.85478V9.00578C7.608 9.00578 7.626 8.98678 7.626 8.96378C7.626 8.94078 7.607 8.92178 7.584 8.92178H7.528C7.551 8.85378 7.579 8.72378 7.521 8.59078C7.494 8.52878 7.439 8.47078 7.377 8.41978C7.317 8.36978 7.249 8.32678 7.194 8.29578C7.197 8.28778 7.199 8.27678 7.2 8.26478C7.2 8.25078 7.199 8.23378 7.191 8.21778C7.183 8.20078 7.167 8.18478 7.15 8.17078C7.134 8.15878 7.117 8.14778 7.104 8.14078L7.102 8.11178C7.106 8.10878 7.108 8.10578 7.111 8.10178C7.114 8.09678 7.115 8.09178 7.115 8.08678C7.115 8.08078 7.114 8.07478 7.11 8.06978C7.108 8.06578 7.104 8.06178 7.1 8.05878V8.03178C7.103 8.02878 7.105 8.02678 7.106 8.02378C7.108 8.01978 7.109 8.01578 7.109 8.01178C7.109 8.00678 7.108 8.00278 7.105 7.99778C7.103 7.99478 7.101 7.99178 7.097 7.98978L7.096 7.96278L7.088 7.76178C7.088 7.75978 7.086 7.75778 7.083 7.75778C7.081 7.75778 7.079 7.75978 7.078 7.76178L7.069 7.96278L7.068 7.98978C7.065 7.99178 7.062 7.99478 7.061 7.99778C7.059 8.00178 7.057 8.00678 7.057 8.01178C7.057 8.01678 7.058 8.02078 7.06 8.02378C7.062 8.02678 7.064 8.02978 7.067 8.03178L7.066 8.05578C7.062 8.05878 7.058 8.06278 7.056 8.06678C7.053 8.07178 7.052 8.07778 7.052 8.08378C7.052 8.08878 7.054 8.09478 7.056 8.09878C7.058 8.10278 7.061 8.10678 7.065 8.10878L7.061 8.13778C7.048 8.14478 7.031 8.15478 7.015 8.16778C6.997 8.18178 6.981 8.19778 6.974 8.21478C6.967 8.23178 6.965 8.24778 6.965 8.26178C6.966 8.27478 6.968 8.28478 6.971 8.29278C6.916 8.32378 6.849 8.36678 6.788 8.41678C6.726 8.46778 6.671 8.52578 6.644 8.58778C6.586 8.72078 6.614 8.85078 6.637 8.91878H6.597C6.574 8.91878 6.555 8.93778 6.555 8.96078C6.555 8.98278 6.573 9.00178 6.596 9.00278V9.85178C6.579 9.86678 6.568 9.88778 6.568 9.91278C6.568 9.92478 6.571 9.93578 6.575 9.94578C6.504 9.95278 6.449 10.0128 6.449 10.0848V11.7288H6.377C6.375 11.7158 6.368 11.7038 6.359 11.6958V11.1238C6.374 11.1238 6.386 11.1108 6.386 11.0958C6.386 11.0798 6.373 11.0678 6.358 11.0678H6.326C6.342 11.0218 6.36 10.9338 6.321 10.8448C6.303 10.8028 6.266 10.7638 6.224 10.7288C6.183 10.6958 6.138 10.6668 6.101 10.6458C6.103 10.6408 6.104 10.6328 6.105 10.6248C6.105 10.6158 6.104 10.6048 6.099 10.5928C6.094 10.5818 6.083 10.5698 6.072 10.5618C6.061 10.5528 6.049 10.5458 6.041 10.5418L6.04 10.5218C6.042 10.5198 6.044 10.5178 6.045 10.5148C6.047 10.5118 6.048 10.5088 6.048 10.5048C6.048 10.5008 6.047 10.4968 6.045 10.4938C6.043 10.4908 6.041 10.4878 6.038 10.4868L6.037 10.4698C6.039 10.4678 6.04 10.4668 6.041 10.4648C6.043 10.4628 6.043 10.4598 6.043 10.4568C6.043 10.4538 6.042 10.4498 6.041 10.4478C6.04 10.4448 6.038 10.4428 6.036 10.4418L6.035 10.4238L6.029 10.2888C6.029 10.2868 6.027 10.2858 6.026 10.2858C6.024 10.2858 6.023 10.2868 6.023 10.2888L6.017 10.4238V10.4418C6.015 10.4428 6.013 10.4448 6.012 10.4478C6.01 10.4498 6.01 10.4538 6.01 10.4568C6.01 10.4598 6.01 10.4628 6.012 10.4648C6.013 10.4668 6.014 10.4688 6.016 10.4698L6.015 10.4868C6.012 10.4888 6.01 10.4908 6.008 10.4938C6.006 10.4968 6.005 10.5008 6.005 10.5048C6.005 10.5088 6.006 10.5118 6.008 10.5148C6.009 10.5178 6.011 10.5198 6.014 10.5218L6.012 10.5418C6.003 10.5468 5.992 10.5538 5.981 10.5618C5.969 10.5708 5.958 10.5818 5.953 10.5928C5.948 10.6038 5.947 10.6148 5.947 10.6248C5.947 10.6338 5.949 10.6408 5.951 10.6458C5.914 10.6668 5.869 10.6958 5.828 10.7288C5.786 10.7628 5.749 10.8028 5.731 10.8448C5.692 10.9338 5.711 11.0218 5.726 11.0678H5.7C5.684 11.0678 5.672 11.0808 5.672 11.0958C5.672 11.1108 5.684 11.1228 5.699 11.1238V11.6958C5.69 11.7038 5.683 11.7158 5.681 11.7288H5.612L5.609 11.0528H5.623C5.645 11.0528 5.664 11.0348 5.664 11.0118C5.664 10.9898 5.646 10.9708 5.623 10.9708H5.609L5.606 10.4038H5.624C5.644 10.4038 5.66 10.3878 5.66 10.3678C5.66 10.3508 5.648 10.3368 5.632 10.3328V10.2158V10.1618H5.647C5.658 10.1618 5.666 10.1528 5.666 10.1438C5.666 10.1328 5.658 10.1248 5.647 10.1248H5.629C5.639 10.0938 5.652 10.0358 5.626 9.97678C5.614 9.94878 5.589 9.92278 5.562 9.89978C5.535 9.87778 5.505 9.85878 5.48 9.84378C5.481 9.84078 5.482 9.83578 5.482 9.82978C5.482 9.82278 5.482 9.81578 5.478 9.80878C5.475 9.80078 5.467 9.79378 5.46 9.78778C5.453 9.78178 5.445 9.77778 5.439 9.77378V9.76078C5.441 9.75978 5.442 9.75778 5.443 9.75678C5.444 9.75478 5.445 9.75178 5.445 9.74978C5.445 9.74678 5.444 9.74478 5.443 9.74278C5.442 9.74078 5.441 9.73878 5.439 9.73878V9.72778C5.44 9.72678 5.441 9.72578 5.442 9.72478C5.443 9.72278 5.444 9.72078 5.444 9.71878C5.444 9.71678 5.443 9.71478 5.442 9.71278C5.441 9.71178 5.44 9.71078 5.439 9.70878V9.69678L5.435 9.60678C5.435 9.60578 5.434 9.60478 5.434 9.60478C5.432 9.60478 5.431 9.60578 5.431 9.60678L5.427 9.69678L5.426 9.70878C5.422 9.70978 5.421 9.71078 5.42 9.71178C5.419 9.71378 5.418 9.71578 5.418 9.71778C5.418 9.71978 5.418 9.72178 5.419 9.72378C5.42 9.72478 5.421 9.72678 5.422 9.72678V9.73778C5.42 9.73878 5.419 9.74078 5.418 9.74178C5.417 9.74378 5.416 9.74678 5.416 9.74878C5.416 9.75078 5.417 9.75378 5.418 9.75578C5.419 9.75778 5.42 9.75878 5.422 9.75978L5.421 9.77278C5.415 9.77578 5.408 9.78078 5.4 9.78678C5.392 9.79378 5.385 9.80178 5.381 9.80878C5.378 9.81578 5.377 9.82378 5.377 9.82978C5.377 9.83578 5.379 9.84078 5.38 9.84378C5.356 9.85778 5.325 9.87678 5.298 9.89978C5.27 9.92278 5.246 9.94878 5.233 9.97678C5.207 10.0358 5.22 10.0948 5.23 10.1248H5.209C5.199 10.1248 5.191 10.1328 5.191 10.1438C5.191 10.1538 5.199 10.1618 5.209 10.1618H5.224C5.224 10.1878 5.224 10.2128 5.224 10.2378V10.3318C5.208 10.3358 5.196 10.3498 5.196 10.3668C5.196 10.3868 5.212 10.4028 5.232 10.4028H5.249L5.247 10.9718H5.233C5.21 10.9718 5.192 10.9898 5.192 11.0128C5.192 11.0358 5.21 11.0538 5.233 11.0538H5.247V11.1048H5.144C5.18 11.0078 5.237 10.7928 5.141 10.5738C5.099 10.4788 5.014 10.3888 4.919 10.3098C4.826 10.2328 4.722 10.1668 4.638 10.1188C4.642 10.1068 4.646 10.0898 4.647 10.0708C4.648 10.0488 4.645 10.0238 4.634 9.99778C4.622 9.97078 4.598 9.94578 4.571 9.92578C4.546 9.90678 4.519 9.89078 4.499 9.87978L4.497 9.83478C4.502 9.83078 4.507 9.82578 4.51 9.81878C4.514 9.81178 4.516 9.80378 4.516 9.79478C4.516 9.78578 4.514 9.77678 4.509 9.76878C4.505 9.76178 4.5 9.75678 4.493 9.75278L4.491 9.71478C4.495 9.71178 4.498 9.70678 4.501 9.70278C4.504 9.69678 4.505 9.69078 4.505 9.68378C4.505 9.67678 4.503 9.66978 4.499 9.66278C4.496 9.65778 4.492 9.65378 4.487 9.64978L4.485 9.60878L4.471 9.30578C4.5 9.30678 4.529 9.29978 4.555 9.28478C4.583 9.26878 4.604 9.24578 4.617 9.21878C4.606 9.23378 4.592 9.24578 4.575 9.25578C4.507 9.29478 4.42 9.27178 4.38 9.20378C4.341 9.13578 4.364 9.04778 4.432 9.00878C4.449 8.99878 4.467 8.99278 4.485 8.99078C4.455 8.98878 4.424 8.99578 4.396 9.01178C4.321 9.05578 4.295 9.15178 4.338 9.22778C4.364 9.27278 4.407 9.29978 4.455 9.30578L4.442 9.60978L4.44 9.65078C4.435 9.65378 4.431 9.65778 4.428 9.66378C4.424 9.66978 4.422 9.67678 4.422 9.68478C4.422 9.69178 4.424 9.69878 4.427 9.70378C4.429 9.70778 4.433 9.71278 4.437 9.71578L4.435 9.75378C4.428 9.75778 4.423 9.76378 4.419 9.76978C4.415 9.77778 4.412 9.78578 4.412 9.79578C4.412 9.80478 4.414 9.81178 4.418 9.81978C4.421 9.82578 4.426 9.83178 4.431 9.83578L4.429 9.88078C4.409 9.89178 4.382 9.90778 4.358 9.92678C4.331 9.94678 4.307 9.97178 4.295 9.99878C4.284 10.0248 4.281 10.0498 4.282 10.0718C4.283 10.0908 4.287 10.1078 4.291 10.1198C4.263 10.1358 4.233 10.1538 4.201 10.1738V9.86278C4.206 9.85978 4.209 9.85478 4.209 9.84878C4.209 9.84078 4.203 9.83378 4.196 9.83178V9.78678V9.77878V9.77678C4.196 9.77578 4.196 9.77378 4.196 9.77278V9.75178H4.203C4.208 9.75178 4.212 9.74778 4.212 9.74278C4.212 9.73778 4.208 9.73378 4.203 9.73378H4.193C4.198 9.71978 4.204 9.69178 4.191 9.66378C4.185 9.65078 4.174 9.63878 4.161 9.62778C4.148 9.61778 4.134 9.60878 4.122 9.60178C4.123 9.59978 4.123 9.59778 4.123 9.59478C4.123 9.59178 4.123 9.58778 4.121 9.58478C4.119 9.58178 4.116 9.57778 4.112 9.57478C4.108 9.57278 4.105 9.56978 4.102 9.56878V9.56278C4.103 9.56178 4.103 9.56178 4.104 9.56078C4.104 9.55978 4.105 9.55878 4.105 9.55778C4.105 9.55678 4.105 9.55478 4.104 9.55378C4.104 9.55278 4.103 9.55178 4.102 9.55178V9.54678C4.103 9.54678 4.103 9.54578 4.103 9.54578C4.104 9.54478 4.104 9.54378 4.104 9.54278C4.104 9.54178 4.104 9.54078 4.103 9.53978C4.103 9.53978 4.102 9.53878 4.101 9.53778V9.53178L4.099 9.48878C4.099 9.48878 4.099 9.48778 4.098 9.48778H4.101L4.099 9.53078V9.53678C4.098 9.53678 4.098 9.53778 4.098 9.53778C4.097 9.53878 4.097 9.54078 4.097 9.54078C4.097 9.54178 4.097 9.54278 4.098 9.54378C4.098 9.54378 4.099 9.54478 4.099 9.54578V9.55078C4.098 9.55078 4.097 9.55178 4.097 9.55278C4.096 9.55378 4.096 9.55478 4.096 9.55678C4.096 9.55878 4.096 9.55878 4.097 9.55978C4.097 9.56078 4.098 9.56078 4.099 9.56178V9.56778C4.096 9.56878 4.093 9.57178 4.089 9.57378C4.085 9.57678 4.082 9.58078 4.08 9.58378C4.078 9.58778 4.078 9.59078 4.078 9.59378C4.078 9.59678 4.079 9.59878 4.079 9.60078C4.068 9.60778 4.053 9.61678 4.041 9.62678C4.028 9.63778 4.016 9.64978 4.01 9.66278C3.998 9.69078 4.004 9.71878 4.008 9.73278H3.999C3.994 9.73278 3.99 9.73678 3.99 9.74178C3.99 9.74678 3.994 9.75078 3.999 9.75078H4.006V9.77578V9.83078C3.999 9.83278 3.993 9.83978 3.993 9.84778C3.993 9.85378 3.996 9.85878 4.001 9.86178V10.3198C3.913 10.3938 3.836 10.4768 3.795 10.5648L3.79 9.62378H3.813C3.85 9.62378 3.881 9.59278 3.881 9.55578C3.881 9.51878 3.85 9.48778 3.813 9.48778H3.788L3.783 8.54278H3.812C3.846 8.54278 3.873 8.51578 3.873 8.48278C3.873 8.45478 3.854 8.43078 3.827 8.42378V8.22978V8.14078H3.851C3.868 8.14078 3.882 8.12678 3.882 8.10978C3.882 8.09278 3.868 8.07878 3.851 8.07878H3.821C3.838 8.02778 3.859 7.93078 3.816 7.83178C3.796 7.78578 3.755 7.74178 3.708 7.70478C3.663 7.66778 3.613 7.63578 3.572 7.61278C3.574 7.60678 3.576 7.59878 3.576 7.58978C3.576 7.57878 3.575 7.56678 3.57 7.55478C3.564 7.54178 3.552 7.52978 3.539 7.51978C3.527 7.50978 3.514 7.50278 3.505 7.49778L3.504 7.47578C3.507 7.47378 3.509 7.47078 3.511 7.46778C3.513 7.46478 3.514 7.46078 3.514 7.45678C3.514 7.45278 3.513 7.44778 3.511 7.44478C3.509 7.44178 3.507 7.43878 3.503 7.43678L3.502 7.41878C3.504 7.41678 3.506 7.41478 3.507 7.41278C3.508 7.40978 3.509 7.40678 3.509 7.40378C3.509 7.39978 3.508 7.39678 3.506 7.39378C3.504 7.39178 3.502 7.38978 3.5 7.38778L3.499 7.36778L3.492 7.21778C3.492 7.21578 3.49 7.21478 3.488 7.21478C3.486 7.21478 3.485 7.21578 3.485 7.21778L3.478 7.36778L3.477 7.38778C3.475 7.38978 3.473 7.39178 3.471 7.39378C3.469 7.39678 3.468 7.40078 3.468 7.40378C3.468 7.40678 3.469 7.40978 3.47 7.41278C3.471 7.41478 3.473 7.41678 3.475 7.41878L3.474 7.43678C3.471 7.43878 3.468 7.44178 3.466 7.44478C3.464 7.44878 3.463 7.45278 3.463 7.45678C3.463 7.46078 3.464 7.46478 3.466 7.46778C3.468 7.47078 3.47 7.47378 3.473 7.47578L3.472 7.49778C3.463 7.50278 3.45 7.51078 3.438 7.51978C3.425 7.52978 3.413 7.54178 3.407 7.55478C3.402 7.56678 3.4 7.57878 3.401 7.58978C3.401 7.59878 3.404 7.60678 3.405 7.61278C3.364 7.63578 3.314 7.66778 3.269 7.70478C3.223 7.74278 3.182 7.78678 3.161 7.83178C3.118 7.93078 3.139 8.02778 3.156 8.07878H3.123C3.106 8.07878 3.092 8.09278 3.092 8.10978C3.092 8.12678 3.106 8.14078 3.123 8.14078H3.149V8.21578C3.149 8.21978 3.148 8.22478 3.148 8.22978L3.149 8.23678V8.26778V8.42378C3.122 8.42978 3.102 8.45378 3.102 8.48278C3.102 8.51678 3.129 8.54278 3.163 8.54278H3.191L3.186 9.48778H3.162C3.125 9.48778 3.094 9.51878 3.094 9.55578C3.094 9.59378 3.125 9.62378 3.162 9.62378H3.185L3.181 10.2678C3.118 10.1498 3.01 10.0388 2.891 9.94078C2.76 9.83278 2.615 9.74078 2.497 9.67278C2.502 9.65578 2.508 9.63278 2.509 9.60578C2.51 9.57478 2.507 9.53878 2.491 9.50378C2.475 9.46678 2.44 9.43078 2.403 9.40178C2.369 9.37478 2.331 9.35178 2.303 9.33678L2.3 9.27378C2.308 9.26778 2.314 9.26078 2.318 9.25178C2.323 9.24178 2.326 9.23078 2.326 9.21878C2.326 9.20578 2.323 9.19378 2.316 9.18278C2.311 9.17378 2.303 9.16578 2.294 9.15978L2.292 9.10678C2.298 9.10278 2.302 9.09578 2.306 9.08978C2.31 9.08178 2.313 9.07278 2.313 9.06278C2.313 9.05178 2.31 9.04278 2.305 9.03378C2.301 9.02678 2.295 9.02078 2.288 9.01578L2.285 8.95878L2.266 8.53478C2.306 8.53578 2.347 8.52678 2.384 8.50578C2.423 8.48278 2.452 8.45078 2.471 8.41278C2.455 8.43278 2.436 8.45078 2.412 8.46478C2.316 8.51978 2.194 8.48678 2.139 8.39178C2.084 8.29578 2.117 8.17378 2.212 8.11878C2.236 8.10478 2.261 8.09678 2.286 8.09378C2.244 8.09178 2.201 8.10078 2.162 8.12378C2.056 8.18478 2.02 8.31978 2.081 8.42578C2.117 8.48778 2.178 8.52678 2.244 8.53478L2.225 8.96078L2.223 9.01778C2.216 9.02178 2.211 9.02878 2.206 9.03578C2.201 9.04378 2.198 9.05378 2.198 9.06478C2.198 9.07478 2.201 9.08378 2.205 9.09178C2.209 9.09778 2.214 9.10378 2.219 9.10878L2.217 9.16178C2.208 9.16778 2.2 9.17578 2.195 9.18478C2.189 9.19578 2.185 9.20778 2.185 9.22078C2.185 9.23278 2.188 9.24378 2.193 9.25378C2.197 9.26278 2.204 9.26978 2.211 9.27578L2.208 9.33878C2.18 9.35378 2.143 9.37678 2.108 9.40378C2.07 9.43278 2.036 9.46778 2.02 9.50478C2.004 9.53978 2 9.57678 2.002 9.60778C2.003 9.63478 2.009 9.65778 2.014 9.67478C1.896 9.74278 1.751 9.83478 1.62 9.94278C1.602 9.95778 1.583 9.97378 1.566 9.98878L1.564 9.64478H1.581C1.601 9.64478 1.617 9.62778 1.617 9.60878C1.617 9.59178 1.605 9.57778 1.59 9.57278V9.45578V9.40178H1.605C1.615 9.40178 1.624 9.39278 1.624 9.38278C1.624 9.37278 1.615 9.36378 1.605 9.36378H1.589C1.6 9.33378 1.612 9.27478 1.586 9.21578C1.574 9.18778 1.549 9.16178 1.521 9.13878C1.494 9.11678 1.463 9.09678 1.439 9.08278C1.44 9.07878 1.441 9.07378 1.442 9.06878C1.442 9.06178 1.441 9.05478 1.438 9.04678C1.435 9.03978 1.428 9.03178 1.42 9.02578C1.413 9.01978 1.405 9.01578 1.399 9.01178L1.398 8.99878C1.4 8.99778 1.401 8.99578 1.402 8.99378C1.403 8.99178 1.404 8.98978 1.404 8.98678C1.404 8.98378 1.403 8.98178 1.402 8.97878C1.401 8.97678 1.399 8.97578 1.397 8.97378L1.396 8.96278C1.398 8.96178 1.398 8.95978 1.399 8.95878C1.4 8.95678 1.4 8.95478 1.4 8.95278C1.4 8.95078 1.4 8.94878 1.398 8.94678C1.397 8.94478 1.396 8.94378 1.395 8.94278L1.394 8.93078L1.39 8.84078C1.39 8.83978 1.389 8.83878 1.388 8.83878C1.387 8.83878 1.386 8.83978 1.386 8.84078L1.382 8.93078V8.94278C1.381 8.94378 1.379 8.94478 1.378 8.94678C1.377 8.94878 1.376 8.95078 1.376 8.95278C1.376 8.95478 1.377 8.95678 1.378 8.95878C1.379 8.95978 1.38 8.96078 1.381 8.96278V8.97378C1.379 8.97478 1.377 8.97678 1.376 8.97878C1.375 8.98078 1.374 8.98378 1.374 8.98678C1.374 8.98878 1.374 8.99078 1.376 8.99378C1.377 8.99578 1.378 8.99778 1.38 8.99878V9.01178C1.374 9.01478 1.367 9.01978 1.359 9.02578C1.351 9.03178 1.344 9.03978 1.341 9.04678C1.338 9.05378 1.337 9.06178 1.337 9.06778C1.337 9.07278 1.338 9.07778 1.34 9.08178C1.315 9.09578 1.285 9.11478 1.258 9.13778C1.23 9.16078 1.206 9.18678 1.193 9.21478C1.167 9.27378 1.18 9.33278 1.19 9.36278H1.169C1.159 9.36278 1.15 9.37078 1.15 9.38178C1.15 9.39178 1.159 9.40078 1.169 9.40078H1.185C1.185 9.42578 1.185 9.45178 1.185 9.47678V9.57078C1.169 9.57478 1.157 9.58878 1.157 9.60678C1.157 9.62678 1.173 9.64278 1.193 9.64278H1.211L1.208 10.2098H1.192C1.17 10.2098 1.151 10.2278 1.151 10.2508C1.151 10.2738 1.169 10.2918 1.192 10.2918H1.206L1.204 11.0538H1V13.8858H3.17H3.489H3.5H3.804H6.45H6.587H6.63H7.723H8.827H9.223H9.241H11.527H11.929H11.945H12.367H12.515H15.067H15.237H20.089H20.259H22.81H22.958H23.38H23.396H23.798H26.102H26.12H26.498H28.29H28.609H28.62H28.924H31.57H31.707H31.75H32.843H34.362V11.0538H34.133ZM1.286 9.57078H1.244V9.43178C1.244 9.42078 1.254 9.41078 1.265 9.41078C1.276 9.41078 1.286 9.42078 1.286 9.43178V9.57078ZM1.455 9.56978H1.321V9.50278C1.321 9.50278 1.32 9.49778 1.325 9.49078C1.33 9.48478 1.328 9.47978 1.326 9.47278C1.311 9.43178 1.38 9.43378 1.388 9.40178C1.396 9.43378 1.465 9.43178 1.451 9.47378C1.449 9.48078 1.447 9.48578 1.451 9.49178C1.456 9.49878 1.455 9.50378 1.455 9.50378V9.56978ZM1.531 9.57078H1.489V9.43178C1.489 9.42078 1.498 9.41078 1.51 9.41078C1.521 9.41078 1.531 9.42078 1.531 9.43178V9.57078ZM3.26 8.42178H3.162V8.31078C3.162 8.31078 3.16 8.30178 3.169 8.29078C3.178 8.27978 3.174 8.27178 3.171 8.26078C3.157 8.22178 3.15 8.18978 3.171 8.16878C3.207 8.19578 3.272 8.20578 3.253 8.26078C3.249 8.27178 3.246 8.28078 3.254 8.29078C3.263 8.30178 3.261 8.31078 3.261 8.31078L3.26 8.42178ZM3.599 8.42178H3.375V8.31078C3.375 8.31078 3.373 8.30178 3.382 8.29078C3.391 8.27978 3.387 8.27178 3.383 8.26078C3.358 8.19078 3.473 8.19278 3.487 8.13978C3.5 8.19278 3.615 8.18978 3.59 8.26078C3.586 8.27178 3.583 8.28078 3.591 8.29078C3.6 8.30178 3.598 8.31078 3.598 8.31078V8.42178H3.599ZM3.714 8.31078C3.714 8.31078 3.712 8.30178 3.721 8.29078C3.73 8.27978 3.726 8.27178 3.722 8.26078C3.703 8.20678 3.767 8.19578 3.804 8.16878C3.824 8.18978 3.817 8.22178 3.803 8.26078C3.799 8.27178 3.796 8.28078 3.804 8.29078C3.813 8.30178 3.811 8.31078 3.811 8.31078V8.42178H3.714V8.31078ZM4.038 9.82978H4.01V9.79778C4.01 9.79778 4.01 9.79478 4.012 9.79278C4.015 9.78978 4.014 9.78678 4.012 9.78378C4.008 9.77278 4.006 9.76378 4.012 9.75778C4.023 9.76578 4.041 9.76878 4.035 9.78378C4.034 9.78678 4.033 9.78878 4.035 9.79278C4.038 9.79578 4.037 9.79778 4.037 9.79778L4.038 9.82978ZM4.134 9.82978H4.071V9.79778C4.071 9.79778 4.07 9.79478 4.073 9.79278C4.075 9.78978 4.075 9.78678 4.073 9.78378C4.066 9.76378 4.099 9.76478 4.102 9.74978C4.106 9.76478 4.138 9.76378 4.131 9.78378C4.13 9.78678 4.129 9.78878 4.131 9.79278C4.134 9.79578 4.133 9.79778 4.133 9.79778L4.134 9.82978ZM4.194 9.82978H4.167V9.79778C4.167 9.79778 4.167 9.79478 4.169 9.79278C4.171 9.78978 4.17 9.78678 4.169 9.78378C4.163 9.76878 4.182 9.76578 4.192 9.75778C4.198 9.76378 4.196 9.77278 4.192 9.78378C4.191 9.78678 4.19 9.78878 4.192 9.79278C4.195 9.79578 4.194 9.79778 4.194 9.79778V9.82978ZM5.327 10.3318H5.285V10.1928C5.285 10.1818 5.294 10.1718 5.306 10.1718C5.318 10.1718 5.327 10.1808 5.327 10.1928V10.3318ZM5.496 10.3318H5.361V10.2648C5.361 10.2648 5.36 10.2598 5.365 10.2528C5.37 10.2458 5.368 10.2408 5.366 10.2348C5.351 10.1928 5.42 10.1948 5.428 10.1618C5.436 10.1938 5.505 10.1918 5.49 10.2348C5.488 10.2408 5.486 10.2468 5.491 10.2528C5.496 10.2598 5.495 10.2648 5.495 10.2648V10.3318H5.496ZM5.572 10.3318H5.53V10.1928C5.53 10.1818 5.539 10.1718 5.551 10.1718C5.563 10.1718 5.572 10.1808 5.572 10.1928V10.3318ZM5.823 11.6818H5.736V11.2788C5.736 11.2788 5.734 11.2708 5.742 11.2608C5.75 11.2508 5.747 11.2438 5.743 11.2338C5.731 11.1988 5.724 11.1698 5.742 11.1508C5.775 11.1748 5.833 11.1838 5.816 11.2338C5.812 11.2438 5.81 11.2508 5.817 11.2608C5.825 11.2708 5.824 11.2788 5.824 11.2788L5.823 11.6818ZM6.129 11.6818H5.928V11.2788C5.928 11.2788 5.926 11.2708 5.934 11.2608C5.941 11.2508 5.938 11.2438 5.935 11.2338C5.913 11.1698 6.017 11.1728 6.029 11.1248H6.03C6.042 11.1728 6.146 11.1698 6.124 11.2338C6.12 11.2438 6.117 11.2508 6.125 11.2608C6.133 11.2708 6.131 11.2788 6.131 11.2788V11.6818H6.129ZM6.316 11.2608C6.323 11.2708 6.322 11.2788 6.322 11.2788V11.6818H6.234V11.2788C6.234 11.2788 6.233 11.2708 6.24 11.2608C6.248 11.2508 6.245 11.2438 6.241 11.2338C6.224 11.1848 6.283 11.1748 6.315 11.1508C6.333 11.1688 6.327 11.1988 6.315 11.2338C6.311 11.2428 6.308 11.2508 6.316 11.2608ZM6.781 9.83178H6.651V9.23178C6.651 9.23178 6.649 9.21978 6.66 9.20578C6.672 9.19178 6.667 9.17978 6.662 9.16478C6.644 9.11278 6.634 9.06978 6.661 9.04178C6.71 9.07778 6.796 9.09178 6.77 9.16478C6.765 9.17978 6.76 9.19178 6.772 9.20578C6.783 9.21978 6.781 9.23178 6.781 9.23178V9.83178ZM7.236 9.83178H6.936V9.23178C6.936 9.23178 6.934 9.21978 6.945 9.20578C6.956 9.19178 6.952 9.17978 6.947 9.16478C6.914 9.07078 7.068 9.07478 7.086 9.00278H7.087C7.104 9.07378 7.259 9.06978 7.226 9.16478C7.221 9.17978 7.216 9.19178 7.228 9.20578C7.239 9.21978 7.237 9.23178 7.237 9.23178L7.236 9.83178ZM7.513 9.20578C7.524 9.21978 7.522 9.23178 7.522 9.23178V9.83078H7.391V9.23178C7.391 9.23178 7.389 9.21978 7.4 9.20578C7.411 9.19178 7.407 9.17978 7.402 9.16478C7.376 9.09178 7.463 9.07778 7.512 9.04178C7.54 9.06878 7.53 9.11278 7.512 9.16478C7.506 9.17978 7.501 9.19178 7.513 9.20578ZM7.886 11.0028H7.844V10.8638C7.844 10.8528 7.853 10.8428 7.865 10.8428C7.877 10.8428 7.886 10.8518 7.886 10.8638V11.0028ZM8.055 11.0028H7.921V10.9358C7.921 10.9358 7.92 10.9308 7.925 10.9238C7.93 10.9168 7.928 10.9118 7.926 10.9058C7.911 10.8638 7.98 10.8648 7.988 10.8338C7.996 10.8658 8.065 10.8638 8.05 10.9058C8.048 10.9128 8.045 10.9178 8.051 10.9238C8.056 10.9308 8.055 10.9358 8.055 10.9358V11.0028ZM8.131 11.0028H8.089V10.8638C8.089 10.8528 8.098 10.8428 8.11 10.8428C8.122 10.8428 8.131 10.8518 8.131 10.8638V11.0028ZM8.373 11.0028H8.331V10.8638C8.331 10.8528 8.34 10.8428 8.352 10.8428C8.364 10.8428 8.373 10.8518 8.373 10.8638V11.0028ZM8.542 11.0028H8.408V10.9358C8.408 10.9358 8.407 10.9308 8.412 10.9238C8.417 10.9168 8.415 10.9118 8.413 10.9058C8.398 10.8638 8.467 10.8648 8.475 10.8338C8.483 10.8658 8.552 10.8638 8.537 10.9058C8.535 10.9128 8.532 10.9178 8.538 10.9238C8.543 10.9308 8.542 10.9358 8.542 10.9358V11.0028ZM8.619 11.0028H8.577V10.8638C8.577 10.8528 8.586 10.8428 8.598 10.8428C8.61 10.8428 8.619 10.8518 8.619 10.8638V11.0028ZM8.783 10.2838H8.745V10.2398C8.745 10.2398 8.744 10.2368 8.747 10.2318C8.75 10.2278 8.749 10.2248 8.747 10.2198C8.742 10.2048 8.739 10.1918 8.747 10.1848C8.761 10.1948 8.786 10.1988 8.779 10.2198C8.777 10.2238 8.776 10.2278 8.779 10.2318C8.782 10.2358 8.782 10.2398 8.782 10.2398V10.2838H8.783ZM8.961 10.2408C8.961 10.2408 8.96 10.2378 8.964 10.2328C8.967 10.2288 8.966 10.2258 8.964 10.2208C8.957 10.1998 8.982 10.1958 8.996 10.1848C9.004 10.1928 9.001 10.2058 8.996 10.2208C8.994 10.2248 8.993 10.2288 8.996 10.2328C8.999 10.2368 8.998 10.2408 8.998 10.2408V10.2848H8.961V10.2408ZM8.828 10.2408C8.828 10.2408 8.828 10.2378 8.831 10.2328C8.834 10.2288 8.833 10.2258 8.831 10.2208C8.821 10.1938 8.867 10.1948 8.872 10.1738C8.877 10.1948 8.922 10.1938 8.912 10.2208C8.91 10.2248 8.909 10.2288 8.913 10.2328C8.916 10.2368 8.916 10.2408 8.916 10.2408V10.2848H8.828V10.2408ZM9.245 9.53978H9.189V9.35578C9.189 9.34078 9.202 9.32778 9.217 9.32778C9.232 9.32778 9.245 9.34078 9.245 9.35578V9.53978ZM9.469 9.53978H9.291V9.45178C9.291 9.45178 9.289 9.44478 9.296 9.43678C9.302 9.42778 9.3 9.42078 9.297 9.41278C9.277 9.35678 9.369 9.35878 9.379 9.31678C9.39 9.35878 9.481 9.35678 9.461 9.41278C9.458 9.42178 9.455 9.42878 9.462 9.43678C9.468 9.44478 9.467 9.45178 9.467 9.45178V9.53978H9.469ZM9.57 9.53978H9.514V9.35578C9.514 9.34078 9.527 9.32778 9.542 9.32778C9.558 9.32778 9.57 9.34078 9.57 9.35578V9.53978ZM10.108 9.45078H9.969V8.81578C9.969 8.81578 9.967 8.80278 9.979 8.78778C9.991 8.77278 9.986 8.75978 9.981 8.74478C9.961 8.68878 9.951 8.64278 9.98 8.61378C10.032 8.65178 10.124 8.66678 10.097 8.74478C10.092 8.75978 10.087 8.77278 10.099 8.78778C10.111 8.80278 10.109 8.81578 10.109 8.81578V9.45078H10.108ZM10.59 9.45078H10.272V8.81578C10.272 8.81578 10.27 8.80278 10.282 8.78778C10.294 8.77278 10.289 8.75978 10.284 8.74478C10.249 8.64478 10.412 8.64878 10.431 8.57278H10.432C10.451 8.64878 10.615 8.64478 10.579 8.74478C10.574 8.75978 10.569 8.77278 10.581 8.78778C10.593 8.80278 10.591 8.81578 10.591 8.81578L10.59 9.45078ZM10.882 8.78678C10.894 8.80178 10.892 8.81478 10.892 8.81478V9.44978H10.754V8.81478C10.754 8.81478 10.752 8.80178 10.764 8.78678C10.776 8.77178 10.771 8.75878 10.766 8.74378C10.739 8.66678 10.83 8.65178 10.882 8.61378C10.91 8.64278 10.9 8.68878 10.881 8.74378C10.875 8.75978 10.87 8.77178 10.882 8.78678ZM11.235 9.02778H11.198V8.98578C11.198 8.98578 11.197 8.98278 11.2 8.97878C11.203 8.97478 11.202 8.97178 11.2 8.96778C11.195 8.95278 11.192 8.94178 11.2 8.93378C11.214 8.94378 11.238 8.94778 11.231 8.96778C11.23 8.97178 11.229 8.97478 11.231 8.97878C11.234 8.98278 11.234 8.98578 11.234 8.98578L11.235 9.02778ZM11.362 9.02778H11.278V8.98578C11.278 8.98578 11.278 8.98278 11.281 8.97878C11.284 8.97478 11.283 8.97178 11.281 8.96778C11.272 8.94178 11.315 8.94278 11.32 8.92278C11.325 8.94278 11.368 8.94178 11.359 8.96778C11.358 8.97178 11.357 8.97478 11.359 8.97878C11.362 8.98278 11.362 8.98578 11.362 8.98578V9.02778ZM11.441 9.02778H11.405V8.98578C11.405 8.98578 11.404 8.98278 11.407 8.97878C11.41 8.97478 11.409 8.97178 11.407 8.96778C11.4 8.94778 11.424 8.94378 11.438 8.93378C11.445 8.94178 11.443 8.95378 11.438 8.96778C11.436 8.97178 11.435 8.97478 11.438 8.97878C11.441 8.98278 11.441 8.98578 11.441 8.98578V9.02778ZM11.646 7.01478H11.518V6.86778C11.518 6.86778 11.516 6.85578 11.527 6.84178C11.539 6.82778 11.534 6.81578 11.529 6.80178C11.511 6.75078 11.501 6.70778 11.528 6.68078C11.576 6.71578 11.661 6.72978 11.636 6.80178C11.631 6.81578 11.626 6.82778 11.638 6.84178C11.649 6.85578 11.647 6.86778 11.647 6.86778L11.646 7.01478ZM12.094 7.01478H11.798V6.86778C11.798 6.86778 11.796 6.85578 11.807 6.84178C11.818 6.82778 11.814 6.81578 11.809 6.80178C11.776 6.70878 11.928 6.71278 11.946 6.64278C11.964 6.71378 12.116 6.70878 12.083 6.80178C12.078 6.81578 12.074 6.82778 12.085 6.84178C12.096 6.85578 12.094 6.86778 12.094 6.86778V7.01478ZM12.247 6.86778C12.247 6.86778 12.245 6.85578 12.256 6.84178C12.267 6.82778 12.263 6.81578 12.258 6.80178C12.232 6.72978 12.319 6.71578 12.366 6.68078C12.393 6.70778 12.384 6.75078 12.366 6.80178C12.361 6.81578 12.357 6.82778 12.368 6.84178C12.38 6.85578 12.377 6.86778 12.377 6.86778V7.01478H12.248V6.86778H12.247ZM14.589 8.53378H14.533V8.35078C14.533 8.33578 14.546 8.32278 14.561 8.32278C14.576 8.32278 14.589 8.33478 14.589 8.35078V8.53378ZM14.812 8.53378H14.634V8.44578C14.634 8.44578 14.632 8.43878 14.639 8.43078C14.645 8.42178 14.643 8.41478 14.64 8.40678C14.62 8.35078 14.712 8.35278 14.723 8.31078C14.734 8.35278 14.825 8.35078 14.806 8.40678C14.803 8.41578 14.8 8.42278 14.807 8.43078C14.814 8.43978 14.813 8.44578 14.813 8.44578L14.812 8.53378ZM14.913 8.53378H14.857V8.35078C14.857 8.33578 14.87 8.32278 14.885 8.32278C14.901 8.32278 14.913 8.33478 14.913 8.35078V8.53378ZM20.468 8.53378H20.412V8.35078C20.412 8.33478 20.424 8.32278 20.44 8.32278C20.455 8.32278 20.468 8.33578 20.468 8.35078V8.53378ZM20.691 8.53378H20.513V8.44578C20.513 8.44578 20.512 8.43878 20.519 8.43078C20.526 8.42178 20.523 8.41478 20.52 8.40678C20.5 8.35078 20.592 8.35278 20.603 8.31078C20.614 8.35278 20.705 8.35078 20.685 8.40678C20.682 8.41578 20.679 8.42278 20.686 8.43078C20.693 8.43978 20.691 8.44578 20.691 8.44578V8.53378ZM20.793 8.53378H20.737V8.35078C20.737 8.33478 20.75 8.32278 20.765 8.32278C20.78 8.32278 20.793 8.33578 20.793 8.35078V8.53378ZM23.078 7.01478H22.949V6.86778C22.949 6.86778 22.946 6.85578 22.958 6.84178C22.969 6.82778 22.965 6.81578 22.96 6.80178C22.942 6.75078 22.932 6.70778 22.96 6.68078C23.008 6.71678 23.094 6.72978 23.068 6.80178C23.063 6.81578 23.059 6.82778 23.07 6.84178C23.081 6.85578 23.079 6.86778 23.079 6.86778V7.01478H23.078ZM23.527 7.01478H23.231V6.86778C23.231 6.86778 23.229 6.85578 23.24 6.84178C23.251 6.82778 23.247 6.81578 23.242 6.80178C23.209 6.70878 23.361 6.71278 23.379 6.64278C23.397 6.71378 23.549 6.70878 23.516 6.80178C23.511 6.81578 23.506 6.82778 23.518 6.84178C23.529 6.85578 23.527 6.86778 23.527 6.86778V7.01478ZM23.679 6.86778C23.679 6.86778 23.677 6.85578 23.688 6.84178C23.699 6.82778 23.695 6.81578 23.69 6.80178C23.665 6.72978 23.75 6.71578 23.798 6.68078C23.824 6.70778 23.815 6.75078 23.797 6.80178C23.792 6.81578 23.788 6.82778 23.799 6.84178C23.81 6.85578 23.808 6.86778 23.808 6.86778V7.01478H23.68V6.86778H23.679ZM23.92 9.02778H23.884V8.98578C23.884 8.98578 23.883 8.98278 23.887 8.97878C23.89 8.97478 23.889 8.97178 23.887 8.96778C23.882 8.95378 23.879 8.94178 23.887 8.93378C23.901 8.94378 23.925 8.94778 23.918 8.96778C23.917 8.97178 23.915 8.97478 23.919 8.97878C23.922 8.98278 23.921 8.98578 23.921 8.98578L23.92 9.02778ZM24.047 9.02778H23.963V8.98578C23.963 8.98578 23.963 8.98278 23.966 8.97878C23.969 8.97478 23.968 8.97178 23.966 8.96778C23.957 8.94178 24 8.94278 24.005 8.92278C24.01 8.94278 24.053 8.94178 24.044 8.96778C24.043 8.97178 24.042 8.97478 24.044 8.97878C24.047 8.98278 24.047 8.98578 24.047 8.98578V9.02778ZM24.127 9.02778H24.09V8.98578C24.09 8.98578 24.09 8.98278 24.093 8.97878C24.096 8.97478 24.095 8.97178 24.093 8.96778C24.086 8.94778 24.11 8.94378 24.124 8.93378C24.132 8.94178 24.129 8.95378 24.124 8.96778C24.122 8.97178 24.121 8.97478 24.124 8.97878C24.127 8.98278 24.127 8.98578 24.127 8.98578V9.02778ZM24.571 9.45078H24.433V8.81578C24.433 8.81578 24.43 8.80278 24.443 8.78778C24.455 8.77278 24.45 8.75978 24.445 8.74478C24.425 8.68978 24.415 8.64378 24.444 8.61478C24.496 8.65278 24.587 8.66778 24.56 8.74478C24.555 8.75978 24.55 8.77278 24.562 8.78778C24.574 8.80278 24.572 8.81578 24.572 8.81578V9.45078H24.571ZM25.053 9.45078H24.735V8.81578C24.735 8.81578 24.732 8.80278 24.745 8.78778C24.757 8.77278 24.752 8.75978 24.747 8.74478C24.712 8.64478 24.876 8.64878 24.894 8.57278H24.895C24.914 8.64878 25.078 8.64478 25.042 8.74478C25.037 8.75978 25.032 8.77278 25.044 8.78778C25.056 8.80278 25.054 8.81578 25.054 8.81578L25.053 9.45078ZM25.347 8.78678C25.359 8.80178 25.357 8.81478 25.357 8.81478V9.44978H25.218V8.81478C25.218 8.81478 25.216 8.80178 25.228 8.78678C25.24 8.77178 25.235 8.75878 25.23 8.74378C25.202 8.66578 25.295 8.65178 25.347 8.61278C25.376 8.64178 25.366 8.68778 25.346 8.74378C25.34 8.75978 25.335 8.77178 25.347 8.78678ZM26.364 9.43178C26.364 9.42078 26.374 9.41078 26.385 9.41078C26.396 9.41078 26.406 9.42078 26.406 9.43178V9.57078H26.364V9.43178ZM25.811 9.53978H25.755V9.35578C25.755 9.34078 25.767 9.32778 25.783 9.32778C25.798 9.32778 25.811 9.34078 25.811 9.35578V9.53978ZM26.034 9.53978H25.856V9.45178C25.856 9.45178 25.855 9.44478 25.861 9.43678C25.868 9.42778 25.865 9.42078 25.862 9.41278C25.842 9.35678 25.934 9.35878 25.944 9.31678C25.955 9.35878 26.046 9.35678 26.027 9.41278C26.024 9.42178 26.021 9.42878 26.028 9.43678C26.035 9.44478 26.033 9.45178 26.033 9.45178V9.53978H26.034ZM26.08 9.53978V9.35578C26.08 9.34078 26.093 9.32778 26.108 9.32778C26.123 9.32778 26.136 9.34078 26.136 9.35578V9.53978H26.08ZM26.576 9.56978H26.441V9.50278C26.441 9.50278 26.44 9.49778 26.445 9.49078C26.45 9.48478 26.448 9.47978 26.446 9.47278C26.431 9.43078 26.5 9.43178 26.509 9.40078C26.517 9.43278 26.586 9.43078 26.572 9.47278C26.57 9.47978 26.568 9.48478 26.572 9.49078C26.577 9.49778 26.576 9.50278 26.576 9.50278V9.56978ZM26.652 9.57078H26.61V9.43178C26.61 9.42078 26.619 9.41078 26.631 9.41078C26.642 9.41078 26.652 9.42078 26.652 9.43178V9.57078ZM28.381 8.42178H28.283V8.31078C28.283 8.31078 28.281 8.30178 28.29 8.29078C28.299 8.27978 28.295 8.27178 28.292 8.26078C28.278 8.22178 28.271 8.18978 28.292 8.16878C28.328 8.19578 28.393 8.20578 28.374 8.26078C28.37 8.27178 28.367 8.28078 28.375 8.29078C28.384 8.30178 28.382 8.31078 28.382 8.31078L28.381 8.42178ZM28.72 8.42178H28.496V8.31078C28.496 8.31078 28.494 8.30178 28.503 8.29078C28.512 8.27978 28.508 8.27178 28.504 8.26078C28.479 8.19078 28.594 8.19278 28.608 8.13978C28.621 8.19278 28.736 8.18978 28.711 8.26078C28.707 8.27178 28.704 8.28078 28.712 8.29078C28.721 8.30178 28.719 8.31078 28.719 8.31078L28.72 8.42178ZM28.835 8.31078C28.835 8.31078 28.833 8.30178 28.842 8.29078C28.851 8.27978 28.847 8.27178 28.843 8.26078C28.824 8.20678 28.888 8.19578 28.925 8.16878C28.945 8.18978 28.938 8.22178 28.924 8.26078C28.92 8.27178 28.917 8.28078 28.925 8.29078C28.934 8.30178 28.932 8.31078 28.932 8.31078V8.42178H28.835V8.31078ZM29.158 9.82978H29.131V9.79778C29.131 9.79778 29.131 9.79478 29.133 9.79278C29.135 9.78978 29.135 9.78678 29.133 9.78378C29.129 9.77278 29.127 9.76378 29.133 9.75778C29.144 9.76578 29.162 9.76878 29.156 9.78378C29.155 9.78678 29.154 9.78878 29.156 9.79278C29.158 9.79578 29.158 9.79778 29.158 9.79778V9.82978ZM29.254 9.82978H29.191V9.79778C29.191 9.79778 29.19 9.79478 29.193 9.79278C29.195 9.78978 29.195 9.78678 29.193 9.78378C29.186 9.76378 29.219 9.76478 29.222 9.74978C29.226 9.76478 29.258 9.76378 29.251 9.78378C29.25 9.78678 29.249 9.78878 29.251 9.79278C29.253 9.79578 29.253 9.79778 29.253 9.79778L29.254 9.82978ZM29.315 9.82978H29.287V9.79778C29.287 9.79778 29.287 9.79478 29.289 9.79278C29.291 9.78978 29.29 9.78678 29.289 9.78378C29.283 9.76878 29.302 9.76578 29.312 9.75778C29.318 9.76378 29.316 9.77278 29.312 9.78378C29.311 9.78678 29.31 9.78878 29.312 9.79278C29.314 9.79578 29.314 9.79778 29.314 9.79778V9.82978H29.315ZM30.447 10.3318H30.405V10.1928C30.405 10.1818 30.414 10.1718 30.426 10.1718C30.438 10.1718 30.447 10.1808 30.447 10.1928V10.3318ZM30.616 10.3318H30.482V10.2648C30.482 10.2648 30.481 10.2598 30.486 10.2528C30.491 10.2458 30.489 10.2408 30.487 10.2348C30.472 10.1928 30.541 10.1948 30.549 10.1618C30.557 10.1938 30.626 10.1918 30.611 10.2348C30.609 10.2408 30.606 10.2468 30.612 10.2528C30.617 10.2598 30.616 10.2648 30.616 10.2648V10.3318ZM30.693 10.3318H30.651V10.1928C30.651 10.1818 30.66 10.1718 30.672 10.1718C30.684 10.1718 30.693 10.1808 30.693 10.1928V10.3318ZM30.944 11.6818H30.856V11.2788C30.856 11.2788 30.854 11.2708 30.862 11.2608C30.87 11.2508 30.867 11.2438 30.863 11.2338C30.851 11.1988 30.844 11.1698 30.862 11.1508C30.895 11.1748 30.953 11.1838 30.936 11.2338C30.932 11.2438 30.929 11.2508 30.937 11.2608C30.945 11.2708 30.943 11.2788 30.943 11.2788L30.944 11.6818ZM31.25 11.6818H31.048V11.2788C31.048 11.2788 31.046 11.2708 31.054 11.2608C31.061 11.2508 31.059 11.2438 31.055 11.2338C31.033 11.1698 31.137 11.1728 31.148 11.1248C31.16 11.1728 31.265 11.1698 31.243 11.2338C31.239 11.2438 31.236 11.2508 31.244 11.2608C31.252 11.2708 31.25 11.2788 31.25 11.2788V11.6818ZM31.437 11.2608C31.444 11.2708 31.443 11.2788 31.443 11.2788V11.6818H31.354V11.2788C31.354 11.2788 31.353 11.2708 31.36 11.2608C31.368 11.2508 31.365 11.2438 31.361 11.2338C31.344 11.1848 31.403 11.1748 31.435 11.1508C31.453 11.1688 31.447 11.1988 31.435 11.2338C31.432 11.2428 31.429 11.2508 31.437 11.2608ZM31.902 9.83178H31.772V9.23178C31.772 9.23178 31.77 9.21978 31.781 9.20578C31.792 9.19178 31.788 9.17978 31.783 9.16478C31.764 9.11278 31.755 9.06978 31.782 9.04178C31.831 9.07778 31.917 9.09178 31.891 9.16478C31.886 9.17978 31.881 9.19178 31.893 9.20578C31.904 9.21978 31.902 9.23178 31.902 9.23178V9.83178ZM32.356 9.83178H32.056V9.23178C32.056 9.23178 32.053 9.21978 32.065 9.20578C32.076 9.19178 32.072 9.17978 32.067 9.16478C32.034 9.07078 32.188 9.07478 32.206 9.00278C32.224 9.07378 32.379 9.06978 32.346 9.16478C32.341 9.17978 32.336 9.19178 32.348 9.20578C32.359 9.21978 32.357 9.23178 32.357 9.23178L32.356 9.83178ZM32.633 9.20578C32.644 9.21978 32.642 9.23178 32.642 9.23178V9.83078H32.511V9.23178C32.511 9.23178 32.509 9.21978 32.52 9.20578C32.532 9.19178 32.527 9.17978 32.522 9.16478C32.496 9.09178 32.583 9.07778 32.632 9.04178C32.66 9.06878 32.65 9.11278 32.632 9.16478C32.627 9.17978 32.622 9.19178 32.633 9.20578ZM33.006 11.0028H32.964V10.8638C32.964 10.8528 32.973 10.8428 32.985 10.8428C32.997 10.8428 33.006 10.8518 33.006 10.8638V11.0028ZM33.176 11.0028H33.041V10.9358C33.041 10.9358 33.04 10.9308 33.045 10.9238C33.05 10.9168 33.048 10.9118 33.046 10.9058C33.031 10.8638 33.1 10.8648 33.108 10.8338C33.116 10.8658 33.185 10.8638 33.17 10.9058C33.168 10.9128 33.166 10.9178 33.171 10.9238C33.176 10.9308 33.175 10.9358 33.175 10.9358L33.176 11.0028ZM33.252 11.0028H33.21V10.8638C33.21 10.8528 33.219 10.8428 33.231 10.8428C33.243 10.8428 33.252 10.8518 33.252 10.8638V11.0028ZM33.494 11.0028H33.452V10.8638C33.452 10.8528 33.462 10.8428 33.473 10.8428C33.485 10.8428 33.494 10.8518 33.494 10.8638V11.0028ZM33.663 11.0028H33.529V10.9358C33.529 10.9358 33.528 10.9308 33.533 10.9238C33.538 10.9168 33.536 10.9118 33.534 10.9058C33.519 10.8638 33.588 10.8648 33.596 10.8338C33.604 10.8658 33.673 10.8638 33.658 10.9058C33.656 10.9128 33.654 10.9178 33.659 10.9238C33.664 10.9308 33.663 10.9358 33.663 10.9358V11.0028ZM33.739 11.0028H33.697V10.8638C33.697 10.8528 33.706 10.8428 33.718 10.8428C33.73 10.8428 33.739 10.8518 33.739 10.8638V11.0028ZM33.903 10.2838H33.865V10.2398C33.865 10.2398 33.864 10.2368 33.867 10.2318C33.87 10.2278 33.869 10.2248 33.867 10.2198C33.862 10.2048 33.859 10.1918 33.867 10.1848C33.881 10.1948 33.906 10.1988 33.899 10.2198C33.897 10.2238 33.896 10.2278 33.899 10.2318C33.902 10.2358 33.902 10.2398 33.902 10.2398L33.903 10.2838ZM34.036 10.2838H33.948V10.2398C33.948 10.2398 33.948 10.2368 33.951 10.2318C33.954 10.2278 33.953 10.2248 33.951 10.2198C33.941 10.1928 33.987 10.1938 33.991 10.1728C33.996 10.1938 34.041 10.1928 34.032 10.2198C34.03 10.2238 34.029 10.2278 34.032 10.2318C34.035 10.2358 34.035 10.2398 34.035 10.2398L34.036 10.2838ZM34.119 10.2838H34.081V10.2398C34.081 10.2398 34.08 10.2368 34.083 10.2318C34.086 10.2278 34.085 10.2248 34.083 10.2198C34.076 10.1988 34.101 10.1948 34.115 10.1838C34.123 10.1918 34.12 10.2048 34.115 10.2198C34.113 10.2238 34.112 10.2278 34.115 10.2318C34.118 10.2358 34.117 10.2398 34.117 10.2398V10.2838H34.119Z" fill="#644E40"/>
</svg>
